<?xml version="1.0" encoding="utf-8"?>
<!-- Generator: Adobe Illustrator 27.5.0, SVG Export Plug-In . SVG Version: 6.00 Build 0)  -->
<svg version="1.1" id="Ñëîé_1" xmlns="http://www.w3.org/2000/svg" xmlns:xlink="http://www.w3.org/1999/xlink" x="0px" y="0px"
	 viewBox="0 0 2600 2000" style="enable-background:new 0 0 2600 2000;" xml:space="preserve">
<g>
	<g id="_x31_0">
		<rect style="fill:#DCE7F9;" width="2600" height="2000"/>
		<rect y="1160.403" style="fill:#8A9EDD;" width="2600" height="692.971"/>
		<rect y="1200.413" style="fill:#CFDDF9;" width="2600" height="799.586"/>
	</g>
	<g id="_x39_">
		<path style="fill:#FCB4B4;" d="M2310.575,1238.394c-0.073,1.416-0.265,2.789-0.546,4.131l-4.044,19.226l-0.546,2.582
			l-10.169,48.249c-1.712,8.16-9.712,13.368-17.859,11.656c-6.037-1.269-10.464-5.991-11.66-11.656l-8.871-42.037l-1.845-8.794
			l-4.044-19.226c-0.295-1.372-0.487-2.759-0.561-4.131c-0.915-12.571,6.184-24.331,17.49-29.51
			c2.007-0.915,4.133-1.623,6.376-2.095c6.568-1.372,13.092-0.517,18.745,2.095c8.413,3.837,14.937,11.479,16.989,21.203
			C2310.619,1232.846,2310.782,1235.664,2310.575,1238.394z"/>
		<path style="fill:#FCB4B4;" d="M2101.828,1238.394c-0.074,1.416-0.266,2.789-0.546,4.131l-4.044,19.226l-1.21,5.769l-9.505,45.062
			c-1.712,8.16-9.712,13.368-17.859,11.656c-6.037-1.269-10.465-5.991-11.66-11.656l-9.83-46.714l-0.871-4.117h-0.015l-4.044-19.226
			c-0.295-1.387-0.487-2.759-0.561-4.131c-0.9-12.571,6.184-24.331,17.49-29.51c2.007-0.915,4.133-1.623,6.376-2.095
			c6.568-1.372,13.092-0.517,18.76,2.095c8.398,3.837,14.937,11.479,16.974,21.203
			C2101.872,1232.846,2102.035,1235.664,2101.828,1238.394z"/>
		<path style="fill:#D39B75;" d="M2101.828,1238.394c-0.074,1.416-0.266,2.789-0.546,4.131l-4.044,19.226h-50.951l-4.044-19.226
			c-0.295-1.387-0.487-2.759-0.561-4.131c-0.9-12.571,6.184-24.331,17.49-29.51c2.007-0.915,4.133-1.623,6.376-2.095
			c6.568-1.372,13.092-0.517,18.76,2.095c8.398,3.837,14.937,11.479,16.974,21.203
			C2101.872,1232.846,2102.035,1235.664,2101.828,1238.394z"/>
		<path style="fill:#D39B75;" d="M2310.575,1238.394c-0.073,1.416-0.265,2.789-0.546,4.131l-4.044,19.226h-50.95l-4.044-19.226
			c-0.295-1.372-0.487-2.759-0.561-4.131c-0.915-12.571,6.184-24.331,17.49-29.51c2.007-0.915,4.133-1.623,6.376-2.095
			c6.568-1.372,13.092-0.517,18.745,2.095c8.413,3.837,14.937,11.479,16.989,21.203
			C2310.619,1232.846,2310.782,1235.664,2310.575,1238.394z"/>
		<path style="fill:#3A72AA;" d="M2271.462,900.002c0,2.42-0.974,4.604-2.553,6.182c-1.579,1.579-3.764,2.553-6.184,2.553h-172.438
			c-4.826,0-8.753-3.91-8.753-8.735c0-2.42,0.974-4.603,2.568-6.197c1.579-1.579,3.779-2.553,6.184-2.553h172.438
			C2267.55,891.252,2271.462,895.162,2271.462,900.002z"/>
		<path style="fill:#3A72AA;" d="M2251.123,891.252h-149.236c0-11.671,4.738-22.221,12.384-29.864
			c7.646-7.658,18.213-12.38,29.874-12.38h64.707C2232.201,849.008,2251.123,867.924,2251.123,891.252z"/>
		<path style="fill:#7689D6;" d="M2185.354,541.145v307.864c0,4.884-3.956,8.853-8.856,8.853c-4.885,0-8.856-3.969-8.856-8.853
			V541.145c0-4.884,3.97-8.853,8.856-8.853C2181.398,532.292,2185.354,536.261,2185.354,541.145z"/>
		<path style="fill:#3A72AA;" d="M2185.354,707.154v141.855c0,4.884-3.956,8.853-8.856,8.853V711.669L2185.354,707.154z"/>
		<path style="fill:#7689D6;" d="M2176.498,857.862c0,0-58.029-2.525-58.788,33.391c0,0-15.07,7.348,0,17.485h-27.424
			c-4.826,0-8.753-3.91-8.753-8.735c0-2.42,0.974-4.603,2.568-6.197c1.579-1.579,3.779-2.553,6.184-2.553h11.601
			c0-11.671,4.738-22.221,12.384-29.864c7.646-7.658,18.213-12.38,29.874-12.38h32.361L2176.498,857.862z"/>
		<path style="fill:#3A72AA;" d="M2289.38,711.669h-226.488c-8.856,0-15.557-7.982-14.037-16.688l34.862-199.355
			c3.749-21.498,22.42-37.198,44.25-37.212c0.015,0,0.03,0,0.03,0h96.278c21.845,0,40.531,15.699,44.294,37.212l34.848,199.355
			C2304.937,703.686,2298.236,711.669,2289.38,711.669z"/>
		<path style="fill:#7689D6;" d="M2127.961,458.414c-1.005,0.031-23.601,1.527-36.376,74.202
			c-13.063,74.336-28.693,179.052-28.693,179.052c-8.856,0-15.557-7.982-14.037-16.688l34.862-199.355
			C2087.465,474.125,2106.132,458.432,2127.961,458.414z"/>
		<path style="fill:#F4A8A8;" d="M2350.869,936.787v273.558c0,15.493-12.561,28.049-28.044,28.049h-293.364
			c-15.498,0-28.058-12.557-28.058-28.049V936.787c0-15.493,12.56-28.049,28.058-28.049h293.364
			C2338.309,908.737,2350.869,921.294,2350.869,936.787z"/>
		<path style="fill:#F29999;" d="M2350.869,936.787v273.558c0,15.493-12.561,28.049-28.044,28.049h-12.251
			c-0.073,1.416-0.265,2.789-0.546,4.131l-4.044,19.226l-1.86,8.794h-47.245l-1.845-8.794l-4.044-19.226
			c-0.295-1.372-0.487-2.759-0.561-4.131h-148.601c-0.074,1.416-0.266,2.789-0.546,4.131l-4.044,19.226l-1.21,5.769l-48.855-1.652
			l-0.871-4.117h-0.015l-4.044-19.226c-0.295-1.387-0.487-2.759-0.561-4.131h-12.221c-15.498,0-28.058-12.557-28.058-28.049v-17.44
			c10.287,0,20.235-0.266,29.874-0.782c53.681-2.818,97.503-13.309,133.28-28.669h0.015c1.683-0.738,3.336-1.461,4.989-2.228
			c1.845-0.812,3.66-1.667,5.461-2.538c6.967-3.305,13.594-6.817,19.926-10.52c2.332-1.343,4.605-2.715,6.848-4.117
			c26.081-16.26,46.567-35.456,62.67-55.73c7.646-9.665,14.302-19.565,20.103-29.51c22.39-38.466,31.822-77.715,35.748-106.413
			v-0.015c3.557-26.22,2.509-43.645,2.509-43.645C2338.309,908.737,2350.869,921.294,2350.869,936.787z"/>
		<path style="fill:#F9C0C0;" d="M2300.773,1058.81h-249.266c-11.365,0-20.578-9.21-20.578-20.571v-79.417
			c0-11.361,9.213-20.571,20.578-20.571h249.266c11.365,0,20.578,9.21,20.578,20.571v79.417
			C2321.351,1049.6,2312.138,1058.81,2300.773,1058.81z"/>
		<path style="fill:#F9C0C0;" d="M2300.773,1208.879h-249.266c-11.365,0-20.578-9.21-20.578-20.571v-79.417
			c0-11.361,9.213-20.571,20.578-20.571h249.266c11.365,0,20.578,9.21,20.578,20.571v79.417
			C2321.351,1199.669,2312.138,1208.879,2300.773,1208.879z"/>
		<path style="fill:#F49F9F;" d="M2202.344,1148.607c0,9.119-6.509,16.732-15.129,18.444c-1.196,0.251-2.421,0.369-3.69,0.369
			c-10.406,0-18.833-8.425-18.833-18.813c0-10.402,8.428-18.828,18.833-18.828c1.269,0,2.494,0.118,3.69,0.369
			C2195.835,1131.86,2202.344,1139.474,2202.344,1148.607z"/>
		<path style="fill:#F49F9F;" d="M2202.344,1148.607c0,9.119-6.509,16.732-15.129,18.444c-8.635-1.711-15.144-9.325-15.144-18.444
			c0-9.133,6.509-16.747,15.144-18.458C2195.835,1131.86,2202.344,1139.474,2202.344,1148.607z"/>
		<path style="fill:#F49F9F;" d="M2202.344,998.536c0,9.119-6.509,16.732-15.129,18.444c-1.196,0.251-2.421,0.369-3.69,0.369
			c-10.406,0-18.833-8.425-18.833-18.813c0-10.402,8.428-18.827,18.833-18.827c1.269,0,2.494,0.118,3.69,0.369
			C2195.835,981.789,2202.344,989.403,2202.344,998.536z"/>
		<path style="fill:#F49F9F;" d="M2202.344,998.536c0,9.119-6.509,16.732-15.129,18.444c-8.635-1.711-15.144-9.325-15.144-18.444
			c0-9.133,6.509-16.747,15.144-18.459C2195.835,981.789,2202.344,989.403,2202.344,998.536z"/>
		<path style="fill:#FCB4B4;" d="M2194.965,1148.607c0,9.119-6.509,16.732-15.129,18.444c-8.635-1.711-15.144-9.325-15.144-18.444
			c0-9.133,6.509-16.747,15.144-18.458C2188.455,1131.86,2194.965,1139.474,2194.965,1148.607z"/>
		<path style="fill:#FCB4B4;" d="M2194.965,998.536c0,9.119-6.509,16.732-15.129,18.444c-8.635-1.711-15.144-9.325-15.144-18.444
			c0-9.133,6.509-16.747,15.144-18.459C2188.455,981.789,2194.965,989.403,2194.965,998.536z"/>
	</g>
	<g id="_x38__1_">
		<path style="fill:#7689D6;" d="M1285.586,1893.961c-216.826,0-421.009-24.324-574.935-68.49
			c-76.494-21.949-137.03-47.833-179.925-76.933c-51.952-35.244-78.294-75.908-78.294-120.862s26.342-85.618,78.294-120.862
			c42.896-29.101,103.431-54.984,179.925-76.933c153.926-44.166,358.108-68.49,574.935-68.49
			c216.827,0,421.009,24.324,574.935,68.49c76.494,21.949,137.03,47.832,179.925,76.933c51.952,35.244,78.294,75.908,78.294,120.862
			s-26.342,85.618-78.294,120.862c-42.896,29.1-103.431,54.984-179.925,76.933
			C1706.595,1869.637,1502.412,1893.961,1285.586,1893.961z"/>
		<ellipse style="fill:#8A9EDD;" cx="1285.586" cy="1627.676" rx="803.191" ry="230.464"/>
	</g>
	<g id="_x37_">
		<path style="fill:#8A9EDD;" d="M877.848,463.489H679.001c-8.576,0-15.528-6.952-15.528-15.528V181.567
			c0-8.576,6.952-15.528,15.528-15.528h198.847c8.576,0,15.528,6.952,15.528,15.528v266.394
			C893.376,456.537,886.424,463.489,877.848,463.489z"/>
		<rect x="693.66" y="199.009" style="fill:#E4EAF9;" width="169.525" height="231.508"/>
		<path style="fill:#C4D9F7;" d="M745.486,339.674c0,0,43.937-35.814,117.699-29.305v120.148H745.486V339.674z"/>
		<path style="fill:#B2C0ED;" d="M693.66,328.267c0,0,121.254,14.644,169.525,85.152v17.098H693.66V328.267z"/>
		
			<ellipse transform="matrix(0.927 -0.375 0.375 0.927 -39.8411 302.0809)" style="fill:#F7D6AA;" cx="756.339" cy="253.42" rx="33.627" ry="33.627"/>
	</g>
	<g id="_x36__1_">
		<path style="fill:#8A9EDD;" d="M1887.848,463.489h-198.847c-8.576,0-15.528-6.952-15.528-15.528V181.567
			c0-8.576,6.952-15.528,15.528-15.528h198.847c8.576,0,15.528,6.952,15.528,15.528v266.394
			C1903.376,456.537,1896.424,463.489,1887.848,463.489z"/>
		<rect x="1703.662" y="199.009" style="fill:#E4EAF9;" width="169.525" height="231.508"/>
		
			<ellipse transform="matrix(0.9732 -0.2298 0.2298 0.9732 -9.4089 426.0317)" style="fill:#F7D6AA;" cx="1824.795" cy="253.42" rx="33.627" ry="33.627"/>
		<path style="fill:#B2C0ED;" d="M1736.389,293.583c0,0,24.949-47.257,47.186-50.585c17.896-2.678,48.514,39.936,89.612,62.566
			v40.601h-136.798V293.583z"/>
		<path style="fill:#C4D9F7;" d="M1703.662,226.358c0,0,24.591-5.325,35.981,28.62c11.39,33.945,56.949,91.187,56.949,91.187
			h-92.929V226.358z"/>
		<rect x="1703.662" y="346.165" style="fill:#C4D9F7;" width="169.525" height="84.352"/>
		<rect x="1703.662" y="346.165" style="fill:#B2C0ED;" width="169.525" height="14.624"/>
		<rect x="1703.662" y="415.893" style="fill:#B2C0ED;" width="169.525" height="14.624"/>
		<rect x="1703.662" y="381.029" style="fill:#B2C0ED;" width="169.525" height="14.624"/>
	</g>
	<g id="_x35_">
		<path style="fill:#3A72AA;" d="M451.474,1108.91c-23.117-0.233-64.94-0.637-88.302-0.869
			c-3.161-22.854-48.852-408.792,4.001-522.039c22.558-54.536,71.255-47.23,88.091,7.682c8.855,25.097,13.225,54.009,16.016,82.359
			C481.307,820.438,471.417,919.872,451.474,1108.91z"/>
		<path style="fill:#7689D6;" d="M388.147,1110.065h-44.748C109.571,732.646,383.848,350.151,388.147,1110.065z"/>
		<path style="fill:#7689D6;" d="M598.337,701.892c-11.006,141.24-52.264,282.129-116.225,406.15l-51.452,2.023
			c-9.356-157.266-0.79-358.856,86.626-496.472c0.011,0,0.011-0.012,0.022-0.012c2.919-4.462,5.998-8.82,8.829-12.626h0.011
			C595.52,507.87,604.419,642.751,598.337,701.892z"/>
		<path style="fill:#F4A8A8;" d="M497.963,1108.042c-4.707,45.308-16.927,153.943-21.853,200.707
			c0.584,9.324-27.833,15.605-62.56,15.815c-33.581-0.439-60.88-5.46-62.604-15.315c-2.786-25.302-19.529-179.579-21.908-201.207
			H497.963z"/>
		<path style="fill:#3A72AA;" d="M599.488,655.695c-16.194-43.837-47.875-60.521-82.179-42.114c2.919-4.462,5.998-8.82,8.829-12.626
			c28.641-9.812,55.988,3.279,72.363,34.404C598.523,635.759,599.466,655.261,599.488,655.695z"/>
		<path style="fill:#3A72AA;" d="M598.337,701.892l-1.106,14.768l-0.055,0.654c-22.794-54.795-64.635-81.577-106.037-56.882
			c1.939-4.106,3.922-8.152,5.97-12.15C537.181,631.208,574.997,654.851,598.337,701.892z"/>
		<path style="fill:#3A72AA;" d="M473.733,702.534c45.854-10.098,89.652,19.545,116.827,69.651
			c-0.635,4.201-1.314,8.437-2.016,12.709c-26.514-53.972-71.381-86.293-118.098-72.983L473.733,702.534z"/>
		<path style="fill:#3A72AA;" d="M579.354,833.388c-0.778,3.677-1.588,7.378-2.421,11.103
			c-32.278-54.308-74.672-83.115-123.772-72.031c0.701-3.011,1.435-6.01,2.18-9.008
			C503.046,758.072,535.101,769.297,579.354,833.388z"/>
		<path style="fill:#3A72AA;" d="M564.642,894.197c-35.535-48.914-75.592-73.384-123.444-60.726
			c-0.493,3.07-0.964,6.141-1.413,9.211c47.703-14.773,86.938,10.933,122.14,61.369L564.642,894.197z"/>
		<path style="fill:#3A72AA;" d="M546.075,955.97l-2.881,8.58c-37.598-39.331-70.413-57.818-111.569-50.409
			c0.229-2.872,0.485-5.756,0.734-8.663C474.112,898.971,508.056,917.03,546.075,955.97z"/>
		<path style="fill:#3A72AA;" d="M428.01,980.223c35.253-7.893,62.917,8.598,92.607,44.816l-3.473,8.413
			c-29.011-36.407-55.107-53.344-89.365-44.494L428.01,980.223z"/>
		<path style="fill:#3A72AA;" d="M501.381,1069.128c-1.138,2.518-2.337,4.993-3.527,7.485
			c-23.851-17.546-47.297-24.86-69.965-21.242c-0.066-2.713-0.132-5.51-0.197-8.39
			C445.451,1044.319,470.995,1046.976,501.381,1069.128z"/>
		<path style="fill:#3A72AA;" d="M363.171,1108.042l-3.407,2.023h-16.366c0,0-116.356-182.464-89.507-367.689
			c8.494-58.561,27.584-80.092,48.127-69.613l-0.771,0.961C301.247,673.724,244.58,840.789,363.171,1108.042z"/>
		<path style="fill:#8A9EDD;" d="M403.516,549.214c-11.892,128.388,3.387,525.301,6.857,559.959l7.646-0.524
			c-2.978-23.607-18.935-433.642-6.77-560.114L403.516,549.214z"/>
		<path style="fill:#8A9EDD;" d="M455.264,593.684c-24.612,48.367-38.88,65.587-54.53,82.896
			c-12.872-10.444-32.059-33.181-46.118-49.945c0.734-3.32,1.49-6.557,2.289-9.71c11.306,13.624,30.763,36.795,43.28,48.493
			c16.683-20.295,30.537-39.41,51.156-81.635C452.711,586.877,454.015,590.174,455.264,593.684z"/>
		<path style="fill:#8A9EDD;" d="M472.166,686.076c-40.133,37.297-56.554,58.068-70.316,76.196
			c-20.946-9.037-43.43-34.478-57.893-52.515c0.073-1.029,0.799-11.138,0.843-11.829c11.814,15.325,34.764,43.078,54.804,54.086
			c17.61-22.149,35.014-42.568,71.674-75.97C471.588,679.311,471.883,682.698,472.166,686.076z"/>
		<path style="fill:#3A72AA;" d="M451.474,1108.91h-74.522C247.269,743.05,529.901,615.201,451.474,1108.91z"/>
		<path style="fill:#8A9EDD;" d="M451.474,1108.91h-37.277c45.964-177.897-18.622-323.551-18.622-323.551
			C447.091,777.377,495.072,882.761,451.474,1108.91z"/>
		<path style="fill:#F29999;" d="M497.963,1108.042l-3.735,34.308H332.773l-3.33-30.607
			C369.53,1108.259,457.18,1107.444,497.963,1108.042z"/>
		<path style="fill:#F4A8A8;" d="M493.166,1124.207H333.838c-6.84,0-12.611-5.302-13.467-12.371
			c-1.023-8.446,5.296-15.913,13.467-15.913h159.328C511.033,1096.263,510.984,1123.907,493.166,1124.207z"/>
		<path style="fill:#F29999;" d="M476.11,1308.749c2.784,20.289-125.592,20.684-125.164,0.5c0,0,115.348,11.043,139.47-131.9
			L476.11,1308.749z"/>
	</g>
	<g id="_x34__1_">
		<path style="fill:#FCB4B4;" d="M776.427,1260.357l-6.124,29.1l-9.782,46.416c-1.861,8.778-10.482,14.407-19.263,12.562
			c-6.49-1.368-11.262-6.456-12.55-12.562l-9.782-46.416l-6.124-29.1c-3.706-17.555,7.54-34.792,25.1-38.497
			c17.577-3.705,34.819,7.537,38.525,25.108C777.365,1251.468,777.302,1256.111,776.427,1260.357z"/>
		<path style="fill:#FCB4B4;" d="M1864.056,1260.357l-6.124,29.1l-9.783,46.416c-1.861,8.778-10.482,14.407-19.262,12.562
			c-6.49-1.368-11.262-6.456-12.55-12.562l-9.782-46.416l-6.124-29.1c-3.706-17.555,7.54-34.792,25.116-38.497
			c17.561-3.705,34.803,7.537,38.509,25.108C1864.995,1251.468,1864.931,1256.111,1864.056,1260.357z"/>
		<path style="fill:#FCB4B4;" d="M1906.128,1002.47v174.644c0,4.182-0.334,8.269-0.97,12.276c-5.869,37.4-38.255,65.99-77.321,65.99
			H749.004c-11.58,0-22.587-2.512-32.481-7.029c-27.025-12.339-45.81-39.594-45.81-71.238V1002.47H1906.128z"/>
		<path style="fill:#F49F9F;" d="M1905.158,1189.389c-5.869,37.4-38.255,65.99-77.321,65.99H749.004
			c-11.58,0-22.587-2.512-32.481-7.029l-6.299-47.799l108.275-10.749c0,0,469.921,116.551,939.843,0L1905.158,1189.389z"/>
		<path style="fill:#FCB4B4;" d="M1832.243,694.628v309.964H742.912V694.628c0-77.598,62.687-140.52,140.024-140.52h809.284
			C1769.556,554.108,1832.243,617.029,1832.243,694.628z"/>
		<path style="fill:#FCB4B4;" d="M1286.743,1004.266c0,30.785-104.822,55.75-234.114,55.75c-129.306,0-234.128-24.965-234.128-55.75
			c0-30.785,104.822-55.75,234.128-55.75C1181.921,948.517,1286.743,973.482,1286.743,1004.266z"/>
		<path style="fill:#F9C0C0;" d="M1286.743,1004.266c-239.81-61.617-468.242,0-468.242,0c0-30.785,104.822-55.75,234.128-55.75
			C1181.921,948.517,1286.743,973.482,1286.743,1004.266z"/>
		<path style="fill:#F49F9F;" d="M818.501,1004.267c239.811,61.617,468.242,0,468.242,0c0,30.785-104.822,55.75-234.128,55.75
			C923.323,1060.016,818.501,1035.052,818.501,1004.267z"/>
		<path style="fill:#FCB4B4;" d="M1758.345,1004.266c0,30.785-105.833,55.75-236.372,55.75c-130.553,0-236.386-24.965-236.386-55.75
			c0-30.785,105.833-55.75,236.386-55.75C1652.511,948.517,1758.345,973.482,1758.345,1004.266z"/>
		<path style="fill:#F9C0C0;" d="M1758.345,1004.266c-242.124-61.617-472.758,0-472.758,0c0-30.785,105.833-55.75,236.386-55.75
			C1652.511,948.517,1758.345,973.482,1758.345,1004.266z"/>
		<path style="fill:#F49F9F;" d="M1285.586,1004.267c242.124,61.617,472.758,0,472.758,0c0,30.785-105.833,55.75-236.386,55.75
			C1391.42,1060.016,1285.586,1035.052,1285.586,1004.267z"/>
		<path style="fill:#F49F9F;" d="M776.427,1246.968c0.938,4.5,0.875,9.143,0,13.389l-6.124,29.1h-51.377l-6.124-29.1
			c-3.706-17.555,7.54-34.792,25.1-38.497C755.478,1218.155,772.721,1229.397,776.427,1246.968z"/>
		<path style="fill:#F49F9F;" d="M1864.056,1260.357l-6.124,29.1h-51.378l-6.124-29.1c-3.706-17.555,7.54-34.792,25.116-38.497
			c17.561-3.705,34.803,7.537,38.509,25.108C1864.995,1251.468,1864.931,1256.111,1864.056,1260.357z"/>
		<path style="fill:#FCB4B4;" d="M1758.345,1189.799V974.534c0-40.803,33.078-73.881,73.881-73.881h0.024
			c40.803,0,73.881,33.078,73.881,73.881v215.265c0,40.804-33.078,73.881-73.881,73.881h-0.024
			C1791.422,1263.68,1758.345,1230.603,1758.345,1189.799z"/>
		<path style="fill:#F49F9F;" d="M1758.345,974.515v215.288c0,40.803,33.085,73.878,73.885,73.878
			C1745.429,1090.722,1758.345,954.114,1758.345,974.515z"/>
		
			<ellipse transform="matrix(1 -0.003 0.003 1 -1.9932 4.1535)" style="fill:#F49F9F;" cx="1402.668" cy="675.667" rx="13.222" ry="13.218"/>
		
			<ellipse transform="matrix(1 -0.003 0.003 1 -2.028 4.9473)" style="fill:#F49F9F;" cx="1641.263" cy="675.667" rx="13.222" ry="13.218"/>
		<ellipse style="fill:#F49F9F;" cx="1641.263" cy="882.383" rx="13.222" ry="13.218"/>
		<ellipse style="fill:#F49F9F;" cx="1402.668" cy="882.383" rx="13.222" ry="13.218"/>
		
			<ellipse transform="matrix(1 -0.003 0.003 1 -2.0436 2.832)" style="fill:#F49F9F;" cx="933.324" cy="675.667" rx="13.222" ry="13.218"/>
		
			<ellipse transform="matrix(1 -0.003 0.003 1 -2.0301 3.5334)" style="fill:#F49F9F;" cx="1171.92" cy="675.667" rx="13.222" ry="13.218"/>
		<ellipse style="fill:#F49F9F;" cx="1171.92" cy="882.383" rx="13.222" ry="13.218"/>
		<ellipse style="fill:#F49F9F;" cx="933.324" cy="882.383" rx="13.222" ry="13.218"/>
		<path style="fill:#F9C0C0;" d="M1832.243,694.303c-617.405-252.226-1089.331,0-1089.331,0c0-77.598,62.687-140.52,140.024-140.52
			h809.284C1769.556,553.783,1832.243,616.705,1832.243,694.303z"/>
		<path style="fill:#F9C0C0;" d="M1906.136,974.515c-75.317-82.846-147.786,0-147.786,0c0-40.787,33.085-73.861,73.901-73.861
			c20.392,0,38.875,8.268,52.236,21.641C1897.865,935.653,1906.136,954.114,1906.136,974.515z"/>
		<path style="fill:#FCB4B4;" d="M818.499,974.515v215.288c0,40.803-33.085,73.878-73.885,73.878
			c-20.408,0-38.875-8.269-52.252-21.642c-13.377-13.373-21.648-31.834-21.648-52.236V974.515c0-40.787,33.085-73.861,73.901-73.861
			c20.392,0,38.875,8.268,52.236,21.641C810.228,935.653,818.499,954.114,818.499,974.515z"/>
		<path style="fill:#F49F9F;" d="M818.499,974.515v215.288c0,40.803-33.085,73.878-73.885,73.878
			C831.415,1090.722,818.499,954.114,818.499,974.515z"/>
		<path style="fill:#F9C0C0;" d="M818.499,974.515c-75.317-82.846-147.786,0-147.786,0c0-40.787,33.085-73.861,73.901-73.861
			c20.392,0,38.875,8.268,52.236,21.641C810.228,935.653,818.499,954.114,818.499,974.515z"/>
	</g>
	<g id="_x33_">
		<path style="fill:#8A9EDD;" d="M1392.101,314.764c-2.327,136.283-205.045,136.261-207.353-0.004
			C1187.075,178.482,1389.793,178.503,1392.101,314.764z"/>
		<path style="fill:#B2C0ED;" d="M1376.726,314.764c-1.982,116.072-174.637,116.054-176.602-0.004
			C1202.106,198.692,1374.76,198.711,1376.726,314.764z"/>
		<path style="fill:#8A9EDD;" d="M1288.426,319.117c-0.126,3.112-32.926-31.573-33.443-31.638c-1.7-1.7-1.7-4.456,0-6.156
			c1.699-1.7,4.456-1.7,6.155,0l22.934,22.933v-53.507c0-2.404,1.95-4.353,4.354-4.353c2.404,0,4.354,1.949,4.354,4.353v64.016
			C1292.821,317.114,1290.767,319.157,1288.426,319.117z"/>
	</g>
	<g id="_x32_">
		<path style="fill:#662948;" d="M1235.158,1225.817c-77.874-58.985-118.13-150.622-207.628-80.305
			c-0.004,0.004-95.734-19.321-61.958,115.313c39.056,155.678,2.118,238.94,112.034,247.514
			c48.643,3.794,140.047,8.69,207.15-52.164C1343.473,1402.925,1345.572,1309.449,1235.158,1225.817z"/>
		<path style="fill:#F99370;" d="M1112.203,1429.105c-31.241,45.4-65.327,91.557-112.841,121.621
			c-34.68,18.532-74.348,24.399-112.947,25.184c-36.786,0.557-73.487-3.904-109.618-9.737c-19.637-3.128-44.861-2.342-42.97-29.445
			c2.999-22.524,28.406-20.885,45.315-22.072c8.089-0.459,27.149-1.576,34.845-2.113c38.633-2.67,79.52-6.939,115.215-20.759
			c9.849-4.236,20.051-8.212,27.818-15.627c27.749-28.219,52.459-67.15,75.795-99.681
			C1068.411,1325.879,1144.917,1376.604,1112.203,1429.105z"/>
		<path style="fill:#EB5648;" d="M1081.835,1478.476c-2.62,8.46-5.76,16.25-9.33,22.9c-3.85,7.19-8.58,14.08-14.05,20.61
			c-2.66,3.21-5.52,6.33-8.52,9.36c-28.55,28.77-70.98,48.91-110.63,53.35c-52.31,5.85-162.97,5.21-176.05-11.89
			c-13.08-17.1,4.06-58.35,4.06-58.35c31.22-26.16,174-7.04,218.54-87.52c27.56-49.8,49.6-65.33,62.4-69.92
			c7.88-2.84,12.26-1.53,12.26-1.53c6.02,1.04,11.04,3.99,15.14,8.4c6.24,6.7,10.37,16.77,12.71,28.66
			C1093.365,1417.916,1090.205,1451.576,1081.835,1478.476z"/>
		<path style="fill:#CE3932;" d="M1081.835,1478.476c-2.62,8.46-5.76,16.25-9.33,22.9c-5.74,10.72-13.45,20.78-22.57,29.97
			c-33.37-39-1.07-108.24-1.07-108.24L1081.835,1478.476z"/>
		<polygon style="fill:#234270;" points="834.705,1726.124 606.525,1601.421 818.304,1541.878 1046.485,1666.581 		"/>
		<polygon style="fill:#275387;" points="1014.059,1664.429 998.316,1668.698 997.28,1668.983 974.079,1675.274 974.072,1675.274 
			973.035,1675.559 973.028,1675.559 948.185,1682.295 947.148,1682.579 947.141,1682.579 920.481,1689.805 919.444,1690.089 
			888.266,1698.548 888.259,1698.548 887.215,1698.825 860.38,1706.109 859.336,1706.394 859.329,1706.394 818.736,1717.399 
			624.581,1611.29 666.363,1599.036 667.385,1598.737 693.52,1591.074 694.542,1590.775 724.902,1581.871 725.924,1581.572 
			751.891,1573.96 752.906,1573.66 777.107,1566.567 778.121,1566.267 800.724,1559.641 801.753,1559.341 817.072,1554.845 
			833.617,1564.049 834.566,1564.581 855.081,1575.989 856.023,1576.514 877.859,1588.658 878.8,1589.184 878.808,1589.184 
			898.374,1600.073 899.323,1600.598 919.444,1611.794 920.393,1612.319 943.149,1624.982 944.098,1625.507 966.533,1637.987 
			966.54,1637.987 967.474,1638.52 967.481,1638.52 992.507,1652.438 993.456,1652.963 		"/>
		<path style="fill:#336699;" d="M970.706,1661.986c-0.284,0-0.572-0.066-0.841-0.207l-163.232-84.971
			c-0.894-0.465-1.241-1.566-0.776-2.461c0.464-0.894,1.566-1.242,2.461-0.775l163.232,84.971c0.894,0.465,1.241,1.566,0.776,2.461
			C972.001,1661.628,971.365,1661.986,970.706,1661.986z"/>
		<path style="fill:#336699;" d="M930.545,1670.66c-0.284,0-0.572-0.066-0.841-0.207l-163.232-84.97
			c-0.894-0.465-1.241-1.566-0.776-2.461c0.465-0.893,1.566-1.243,2.461-0.775l163.232,84.97c0.894,0.465,1.241,1.566,0.776,2.461
			C931.84,1670.302,931.204,1670.66,930.545,1670.66z"/>
		<path style="fill:#336699;" d="M891.689,1680.433c-0.284,0-0.572-0.066-0.841-0.207l-163.232-84.97
			c-0.894-0.465-1.241-1.566-0.776-2.461c0.465-0.894,1.567-1.243,2.461-0.775l163.232,84.97c0.894,0.465,1.241,1.566,0.776,2.461
			C892.984,1680.074,892.348,1680.433,891.689,1680.433z"/>
		<path style="fill:#336699;" d="M853.118,1690.846c-0.284,0-0.572-0.066-0.841-0.207l-163.232-84.97
			c-0.894-0.465-1.241-1.566-0.776-2.461c0.465-0.893,1.567-1.243,2.461-0.775l163.232,84.97c0.894,0.465,1.241,1.566,0.776,2.461
			C854.413,1690.487,853.776,1690.846,853.118,1690.846z"/>
		<polygon style="fill:#234270;" points="834.705,1726.124 606.525,1601.754 557.56,1379.122 785.74,1493.699 		"/>
		<polygon style="fill:#163260;" points="834.705,1726.124 606.525,1601.754 606.525,1611.214 834.705,1735.917 1046.485,1676.374 
			1046.485,1666.581 		"/>
		<polygon style="fill:#163260;" points="795.533,1486.844 567.353,1372.267 557.56,1379.122 785.74,1493.699 836.175,1733.104 
			848.93,1728.376 		"/>
		<path style="fill:#F99370;" d="M1730.554,995.405l-117.796,87.211c2.633,7.767,29.516,31.946,36.162,43.292
			c3.2,4.48,19.727,29.732,22.538,34.481l57.359,60.565l51.928-38.445l-75.419-79.014c-8.945-9.372-9.951-23.759-2.457-34.332
			c15.618-24.35,43.221-38.645,44.734-65.956C1747.048,994.804,1737.325,990.393,1730.554,995.405z"/>
		<path style="fill:#EB5648;" d="M1617.573,1096.605c-2.468-4.338-4.232-9.021-4.817-13.989l118.943-88.06
			c5.783-4.282,14.182-1.691,16.303,5.184c4.92,16.09,2.938,46.197-49.765,89.654c0,0-22.761,8.26-49.318,36.513
			C1648.918,1125.907,1627.552,1114.209,1617.573,1096.605z"/>
		<path style="fill:#E8C0A6;" d="M1716.096,1029.862c-1.708,1.189-1.622,3.933,0.197,4.985c14.614,8.926,27.181,5.703,27.707,5.561
			c3.762-0.953,2.198-6.841-1.541-5.793c-0.475,0.121-10.751,2.623-23.043-4.883
			C1718.353,1029.082,1717.047,1029.175,1716.096,1029.862z"/>
		<path style="fill:#E8C0A6;" d="M1699.042,1045.986c-1.625,1.142-1.651,3.692-0.016,4.844c16.105,12.904,45.803,9.539,31.881,2.46
			c-0.192,0.031-15.355,2.236-28.334-7.291C1701.498,1045.207,1700.07,1045.242,1699.042,1045.986z"/>
		<path style="fill:#E8C0A6;" d="M1679.674,1064.381c-1.658,1.161-1.643,3.789,0.068,4.904c15.8,10.776,32.804,10.009,33.521,9.972
			c3.872-0.154,3.574-6.243-0.314-5.988c-0.23,0.011-15.791,0.638-29.83-8.935
			C1682.048,1063.601,1680.669,1063.661,1679.674,1064.381z"/>
		<path style="fill:#CE3932;" d="M1748.076,999.986l-130.504,96.619c-2.468-4.338-4.232-9.021-4.817-13.989l118.943-88.06
			C1737.557,990.207,1746.103,992.964,1748.076,999.986z"/>
		<path style="fill:#F99370;" d="M2073.501,1176.218l-120.844-82.936c-6.485,5.021-20.58,38.316-29.14,48.298
			c-3.193,4.486-21.678,28.341-25.252,32.546l-38.561,73.968l53.271,36.561l50.116-97.054c5.944-11.512,19.218-17.151,31.656-13.513
			c28.111,6.828,50.622,28.264,76.935,20.792C2079.446,1191.615,2080.447,1180.985,2073.501,1176.218z"/>
		<path style="fill:#EB5648;" d="M1941.001,1102.393c3.297-3.747,7.149-6.941,11.655-9.113l122.02,83.743
			c5.933,4.072,6.221,12.856,0.413,17.102c-13.607,9.896-42.716,17.836-100.978-17.824c0,0-15.228-18.826-50.594-34.723
			C1923.516,1141.578,1927.611,1117.565,1941.001,1102.393z"/>
		<path style="fill:#E8C0A6;" d="M2036.213,1173.781c-1.68-1.227-4.247-0.251-4.648,1.811c-3.675,16.726,3.468,27.555,3.774,28.007
			c2.127,3.246,7.184-0.152,4.974-3.345c-0.269-0.41-5.984-9.309-2.895-23.376
			C2037.686,1175.66,2037.173,1174.455,2036.213,1173.781z"/>
		<path style="fill:#E8C0A6;" d="M2015.411,1162.914c-1.609-1.164-4.028-0.358-4.585,1.563c-6.95,19.431,5.912,46.411,8.067,30.942
			c-0.092-0.172-7.119-13.788-2.343-29.163C2016.948,1164.982,2016.449,1163.643,2015.411,1162.914z"/>
		<path style="fill:#E8C0A6;" d="M1991.708,1150.599c-1.638-1.189-4.117-0.318-4.614,1.663c-5.037,18.45,1.23,34.275,1.499,34.941
			c1.408,3.61,7.067,1.344,5.559-2.249c-0.085-0.214-5.751-14.721-1.276-31.113
			C1993.219,1152.589,1992.712,1151.305,1991.708,1150.599z"/>
		<path style="fill:#CE3932;" d="M2074.881,1194.276l-133.88-91.883c3.297-3.747,7.149-6.941,11.655-9.113l122.02,83.743
			C2080.698,1181.144,2080.876,1190.122,2074.881,1194.276z"/>
		<path style="fill:#EB5648;" d="M1448.335,1554.366c-2.2,38.899-258.046,37.116-323.049,15.531
			c-100.092-29.618-92.607-127.041-58.201-200.461c4.839-3.13,46.067-29.847,52-33.69c-0.008,0.005,4.882-2.013,13.11-4.33
			c20.323-7.909,70.692-10.165,104.56,2.283c85.88,19.857,148.61,6.077,156.59,21.787
			C1393.345,1355.486,1472.485,1410.516,1448.335,1554.366z"/>
		<path style="fill:#F99370;" d="M956.626,1591.904c-1.896,8.457,18.641,9.647,24.015,15.446
			c-12.638,5.844-27.066,8.079-27.113,8.16c-17.242-0.495-34.426-1.921-51.551-4.124c-24.127,10.276,41.487,17.42,47.789,19.294
			c0.003,0.086,0.011,0.173,0.016,0.259c-17.768,3.261-35.748,5.553-53.802,6.317c-22.428,16.027,50.693,7.88,57.534,7.807
			c0.018,0.039,0.036,0.078,0.055,0.117c-16.192,5.895-33.116,9.813-50.236,11.884c-21.162,18.157,52.474,4.119,59.005,1.808
			c0.043,0.053,0.086,0.106,0.129,0.159c-12.044,6.482-24.912,11.426-37.927,15.674c-17.285,19.741,44.686-1.459,50.442-4.224
			c4.923,0.082,28.536-9.047,54.102-26.249c8.378-5.637-1.045-32.269-9.901-36.739c-8.304-4.191-20.743-6.669-25.212-7.69
			C985.589,1596.395,963.146,1583.762,956.626,1591.904z"/>
		<path style="fill:#CE3932;" d="M1132.185,1331.416v0.01c-0.24,13.52-3.55,25.24-8.97,34.75c-8.04,14.11-20.72,23.34-34.85,26.37
			c-2.15,0.46-4.33,0.78-6.53,0.95c-9.1,0.7-15.91-3.39-20.93-9.06c-9.43-10.65-12.54-26.87-12.65-27.42
			c7.88-2.84,12.26-1.53,12.26-1.53c6.02,1.04,11.04,3.99,15.14,8.4l43.43-28.14
			C1119.085,1335.746,1123.945,1333.746,1132.185,1331.416z"/>
		<path style="fill:#F99370;" d="M1058.452,1351.237l8.635,18.201c19.753,28.67,51.998-13.954,54.179-29.652
			c0,0-6.518-11.445-9.911-19.673L1058.452,1351.237z"/>
		<path style="fill:#E57D61;" d="M1090.947,1260.402c0.299,1.027,0.569,2.084,0.771,3.131c-1.679-0.273,10.511,36.406,21.953,61.857
			c-19.008,21.653-47.822,28.895-53.153,30.094c-15.057-31.986-25.337-62.675-28.918-83.245
			C1027.222,1236.675,1081.352,1225.939,1090.947,1260.402z"/>
		<path style="fill:#F99370;" d="M1122.606,1228.236c3.61,27.437,3.595,59.583-11.906,83.079l-0.034,0.01
			c-6.279,9.436-15.14,16.898-25.293,22.247c-55.273,35.584-149.319-14.751-116.599-80.215
			c12.556-21.215,7.743-50.707,16.804-70.783c11.387-35.193,55.97-46.874,86.918-30.208
			C1100.465,1167.438,1116.701,1194.886,1122.606,1228.236z"/>
		<path style="fill:#C16256;" d="M1017.854,1241.976c-3.757-3.833,2.352-9.643,5.994-5.702
			C1027.605,1240.107,1021.496,1245.917,1017.854,1241.976z"/>
		<path style="fill:#C16256;" d="M982.859,1246.341c-3.757-3.833,2.352-9.643,5.994-5.702
			C992.609,1244.472,986.501,1250.282,982.859,1246.341z"/>
		<path style="fill:#C16256;" d="M1003.428,1277.579c2.446-0.711,8.091-1.398,6.958-4.668c-0.489-0.715-1.47-0.893-2.176-0.407
			c-4.549,3.114-12.424,2.722-14.074,0.739c-0.582-0.699,0.261-1.814,1.07-2.626c7.144-6.738,10.962-33.638,4.926-25.837
			c-0.008,0.174-0.873,17.339-7.142,23.627C986.297,1276.754,996.436,1278.627,1003.428,1277.579z"/>
		<path style="fill:#E57D61;" d="M1122.606,1228.236c3.61,27.437,3.595,59.583-11.906,83.079l-0.034,0.01
			c7.207-17.652,4.835-51.617,4.835-51.617l-9.652-12.537c-99.685-2.145-113.725-77.465-113.725-77.465
			C1037.697,1110.761,1116.626,1164.716,1122.606,1228.236z"/>
		<path style="fill:#662948;" d="M999.845,1160.325c0,0,14.214,74.162,104.411,79.376l24.38-24.845
			C1140.404,1150.464,1064.293,1083.897,999.845,1160.325z"/>
		<path style="fill:#662948;" d="M1088.172,1109.76c1.639,74.181-84.363,77.381-88.228,3.283
			C998.305,1038.864,1084.307,1035.664,1088.172,1109.76z"/>
		<path style="fill:#F99370;" d="M1143.191,1236.488c2.943,31.373-36.701,34.647-38.936,3.212
			C1101.313,1208.328,1140.956,1205.054,1143.191,1236.488z"/>
		<path style="fill:#C16256;" d="M1135.408,1245.502c4.226-8.306-2.093-20.577-5.987-21.848c-7.338-2.929-17.158,2.783-15.476,5.539
			c2.777,2.408,6.89-5.72,14.101-2.725C1135.292,1229.071,1131.125,1244.07,1135.408,1245.502z"/>
		<path style="fill:#C16256;" d="M1120.777,1247.593c3.017-1.083,0.806-12.565,12.231-17.281c0.81-0.302,1.223-1.203,0.92-2.014
			C1123.797,1224.55,1115.364,1249.892,1120.777,1247.593z"/>
		<path style="fill:#F4D4BE;" d="M1130.901,1255.111c1.37,4.348-5.492,6.4-6.734,2.014
			C1122.798,1252.778,1129.66,1250.726,1130.901,1255.111z"/>
		<path style="fill:#C16256;" d="M1012.452,1286.942c-2.63,0.828-4.65,0.644-4.822,0.627c-1.048-0.109-1.809-1.048-1.7-2.096
			c0.108-1.044,1.035-1.803,2.083-1.701c0.291,0.025,6.43,0.463,10.374-6.682c0.509-0.926,1.666-1.26,2.592-0.75
			c0.923,0.51,1.258,1.67,0.75,2.593C1018.996,1283.885,1015.353,1286.029,1012.452,1286.942z"/>
		<path style="fill:#C16256;" d="M1032.542,1221.937c-0.228,0.072-0.473,0.103-0.724,0.082l-18.991-1.512
			c-1.051-0.084-1.835-1.004-1.752-2.054c0.083-1.051,1.008-1.838,2.054-1.751l18.991,1.512c1.051,0.083,1.835,1.003,1.752,2.054
			C1033.808,1221.066,1033.261,1221.711,1032.542,1221.937z"/>
		<path style="fill:#C16256;" d="M996.31,1223.583l-15.215,4.79c-1.005,0.316-2.076-0.242-2.393-1.248
			c-0.316-1.005,0.242-2.077,1.247-2.393l15.215-4.79c1.005-0.317,2.076,0.242,2.393,1.247
			C997.873,1222.195,997.316,1223.266,996.31,1223.583z"/>
		<path style="fill:#F99370;" d="M1217.361,1332.986c57.712,68.857,145.893,204.314,55.067,279.654
			c-65.822,47.351-157.728,39.122-234.486,37.111c-21.091-2.202-51.465,6.433-53.573-23.738
			c0.599-26.501,32.393-24.669,51.182-28.18c25.467-3.381,50.518-6.155,75.658-10.36c26.119-4.915,113.087-18.101,113.166-50.344
			c-5.766-48.832-41.881-92.384-70.522-131.234C1099.193,1352.751,1169.106,1284.532,1217.361,1332.986z"/>
		<path style="fill:#1D3F70;" d="M1979.505,1204.606c0,0-3.94,9.37-10.57,24.46c-12.19,27.73-33.46,74.79-56.04,118.49
			c-3.64,7.04-7.31,14-10.98,20.77c-14.75,27.21-29.53,51.48-42.21,66.66l-74.36-153.92l44.07-55.42l13.34-16.77l28.34-35.64h0.01
			l15.85-19.93C1886.955,1153.306,1941.005,1162.376,1979.505,1204.606z"/>
		<path style="fill:#163356;" d="M1912.895,1347.556c-18.25,35.34-37.35,68.47-53.19,87.43l-74.36-153.92l57.41-72.19
			C1842.755,1208.876,1887.175,1266.216,1912.895,1347.556z"/>
		<path style="fill:#CE3932;" d="M1331.465,1584.136c-35.31,1.21-81.27,0.58-141.11-3.06c-29.37-1.78-55.49-6.77-77.27-15.57
			c95.66-17.11,79.269-59.596,62.208-85.71c-21.017-32.169-31.922-75.345-31.922-75.345l128.993-29.555
			C1358.805,1486.586,1331.465,1584.136,1331.465,1584.136z"/>
		<path style="fill:#1D3F70;" d="M1797.415,1525.526c-147.77,42.25-349.08,28.57-349.08,28.57
			c12.08-102.95-54.99-198.88-54.99-198.88c99.26-99.1,294.42,9.01,320.58-26.3c14.51-19.6-35.58-111.9-60.83-155.69
			c0,0-0.01,0.01-0.01,0c-8.12-14.1-13.68-23.17-13.68-23.17c49.48-45.6,95.11-53.45,95.11-53.45c6.72,7.2,13.57,15.08,20.48,23.48
			c25.33,30.8,51.4,68.58,74.42,105.56c36.49,58.59,65.34,115.15,71.48,138.58c0.35,1.32,0.69,2.69,1.02,4.1
			C1912.045,1411.776,1911.575,1492.886,1797.415,1525.526z"/>
		<path style="fill:#EB5648;" d="M1240.095,1646.536c-98.67,23.05-160.31,15.63-188.37,9.13c-11.99-2.78-17.85-5.4-17.85-5.4
			s9.34-22.3-9.98-50.47c0,0,7.63-2.64,19.33-6.45c21.1-6.87,55.44-17.56,82.06-23.45c41.38-9.16,81.62-20.4,73.57-59.55
			c-8.05-39.15-73.57-92.34-66.67-178.92c0,0,19.86-19.86,54.77-18.27c37.11,1.69,70.02,31.4,97.29,81.92
			C1311.525,1445.596,1380.935,1613.636,1240.095,1646.536z"/>
		<path style="fill:#163356;" d="M1754.995,1120.086c-49.83,0.63-101.89,53.15-101.89,53.15s0,0-0.01-0.01c0,0-0.01,0.01-0.01,0
			c-8.12-14.1-13.68-23.17-13.68-23.17c49.48-45.6,95.11-53.45,95.11-53.45C1741.235,1103.806,1748.085,1111.686,1754.995,1120.086z
			"/>
		<path style="fill:#163356;" d="M1837.515,1125.906l0.08,0.12C1837.515,1126.016,1837.515,1125.906,1837.515,1125.906z"/>
		<path style="fill:#163356;" d="M1979.505,1204.606c0,0-3.94,9.37-10.57,24.46c-38.78-46.21-96.76-55.66-97.83-55.83l15.85-19.93
			C1886.955,1153.306,1941.005,1162.376,1979.505,1204.606z"/>
		<path style="fill:#CE3932;" d="M1051.725,1655.656v0.01c-11.99-2.78-17.85-5.4-17.85-5.4s9.34-22.3-9.98-50.47
			c0,0,7.63-2.64,19.33-6.45C1043.225,1593.346,1061.855,1618.586,1051.725,1655.656z"/>
	</g>
	<g id="_x31__1_">
		<path style="fill:#F4D4BE;" d="M1437.936,1637.813c0,0,4.645-0.347,12.514-0.818c29.433-1.76,103.912-5.257,148.545,1.066
			c56.56,8.026,161.224-8.017,131.684-106.714c-7.893-26.375-21.035-44.021-36.847-55.13
			c-43.344-30.474-106.73-11.828-137.04,10.745c-9.671,7.207-18.109,12.836-25.375,17.233
			c-14.117,8.538-23.829,12.406-29.598,14.026c-3.976,1.116-6.083,1.165-6.48,0.942L1437.936,1637.813z"/>
		<path style="fill:#F4D4BE;" d="M1488.219,1515.846c0,0-2.693-42.392-21.782-43.39c-18.633-0.974-23.182,39.954-23.182,39.954
			L1488.219,1515.846z"/>
		<path style="fill:#D1A68F;" d="M1480.451,1516.911c0,0-1.05-32.876-14.144-33.56c-12.781-0.668-16.52,31.994-16.52,31.994
			L1480.451,1516.911z"/>
		<path style="fill:#F4D4BE;" d="M1366.67,1572.058c0,0-30.557-29.506-18.955-44.697c11.325-14.828,45.457,8.211,45.457,8.211
			L1366.67,1572.058z"/>
		<path style="fill:#D1A68F;" d="M1372.275,1566.939c0,0-24.37-22.091-16.412-32.511c7.768-10.171,35.077,8.132,35.077,8.132
			L1372.275,1566.939z"/>
		<path style="fill:#D1A68F;" d="M1437.932,1637.813c0,0,4.645-0.347,12.514-0.818c7.819-1.678,15.737-4.298,23.548-7.91
			c41.41-19.151,63.792-58.849,50.005-88.671c-4.496-9.728-12.291-17.2-22.184-22.192c-3.976,1.116-6.083,1.165-6.48,0.942
			L1437.932,1637.813z"/>
		<path style="fill:#F4D4BE;" d="M1365.779,1609.76c13.786,29.821,58.535,38.475,99.945,19.324
			c41.409-19.151,63.8-58.849,50.005-88.671c-10.753-23.259-40.327-33.64-72.463-27.995c-9.075,1.579-18.357,4.455-27.482,8.67
			c-8.315,3.843-15.861,8.522-22.506,13.778C1366.845,1555.787,1354.753,1585.931,1365.779,1609.76z"/>
		<path style="fill:#D1A68F;" d="M1419.062,1589.704c-4.09,1.78-9.543,2.957-16.224,1.759c-0.751-0.135-1.251-0.853-1.116-1.605
			c0.135-0.751,0.852-1.251,1.605-1.116c14.072,2.526,22.057-6.587,22.39-6.976c0.497-0.579,1.367-0.65,1.948-0.154
			c0.579,0.494,0.651,1.363,0.158,1.945C1427.609,1583.809,1424.575,1587.304,1419.062,1589.704z"/>
		<path style="fill:#D1A68F;" d="M1469.698,1564.216c-4.305,1.874-7.924,1.836-8.198,1.831c-0.763-0.017-1.369-0.65-1.352-1.413
			c0.017-0.761,0.644-1.365,1.409-1.352l0,0c0.441,0.009,10.842,0.057,16.576-10.562c0.363-0.672,1.202-0.922,1.874-0.559
			c0.672,0.363,0.921,1.202,0.558,1.874C1477.545,1559.626,1473.372,1562.617,1469.698,1564.216z"/>
		<path style="fill:#E8C0A6;" d="M1425.596,1598.176c0.5,1.149,1.837,1.675,2.985,1.175c1.149-0.5,1.675-1.837,1.175-2.985
			c-0.5-1.149-1.837-1.675-2.985-1.175S1425.096,1597.027,1425.596,1598.176z"/>
		<path style="fill:#E8C0A6;" d="M1409.622,1605.128c0.5,1.149,1.837,1.675,2.985,1.175c1.149-0.5,1.675-1.837,1.175-2.985
			c-0.5-1.149-1.837-1.675-2.985-1.175C1409.648,1602.643,1409.122,1603.98,1409.622,1605.128z"/>
		<path style="fill:#E8C0A6;" d="M1422.013,1610.779c0.5,1.149,1.837,1.675,2.985,1.175c1.149-0.5,1.675-1.837,1.175-2.985
			s-1.836-1.675-2.985-1.175C1422.039,1608.293,1421.513,1609.63,1422.013,1610.779z"/>
		<path style="fill:#E8C0A6;" d="M1484.061,1568.91c0.629,1.084,2.017,1.452,3.101,0.823c1.083-0.629,1.452-2.017,0.823-3.101
			c-0.629-1.084-2.017-1.452-3.101-0.823S1483.432,1567.827,1484.061,1568.91z"/>
		<path style="fill:#E8C0A6;" d="M1468.994,1577.655c0.629,1.084,2.017,1.452,3.101,0.823c1.083-0.629,1.452-2.017,0.823-3.101
			c-0.629-1.083-2.017-1.452-3.101-0.823C1468.734,1575.183,1468.365,1576.571,1468.994,1577.655z"/>
		<path style="fill:#E8C0A6;" d="M1481.952,1581.841c0.629,1.084,2.017,1.452,3.101,0.823c1.084-0.629,1.452-2.017,0.823-3.1
			c-0.629-1.084-2.017-1.452-3.101-0.823C1481.692,1579.37,1481.323,1580.758,1481.952,1581.841z"/>
		<path style="fill:#D1A68F;" d="M1476.213,1593.504c-0.783-0.836-2.095-0.88-2.931-0.098c-0.042,0.039-4.191,3.853-8.295,2.016
			c-2.513-1.126-4.295-3.27-5.379-4.944c-0.369-0.838-0.736-1.52-1.019-1.999c0.285-0.396,0.528-0.831,0.669-1.334l2.255-8.051
			c0.971-3.468-2.52-6.509-5.822-5.072l-9.683,4.214c-3.302,1.437-3.455,6.064-0.255,7.717l7.428,3.836
			c0.501,0.259,1.025,0.384,1.547,0.435c0.233,0.501,0.638,1.294,1.225,2.231c0.849,2.032,1.566,5.021,0.019,7.567
			c-2.439,4.013-10.267,7.766-13.072,8.875c-1.082,0.393-1.589,1.623-1.169,2.688c0.419,1.065,1.623,1.589,2.688,1.169
			c0.079-0.03,0.46-0.183,1.058-0.443c2.921-1.271,10.997-5.131,14.038-10.137c0.864-1.422,1.282-2.887,1.432-4.318
			c0.719,0.505,1.494,0.968,2.344,1.348c3.274,1.466,6.398,0.85,8.744-0.171c2.375-1.034,3.952-2.482,4.078-2.6
			C1476.951,1595.653,1476.995,1594.341,1476.213,1593.504z"/>
		<path style="fill:#F4D4BE;" d="M1733.226,1541.131c0,0,21.544,42.909,0,82.583c-21.544,39.674-69.237,46.427-103.002,44.317
			c-33.765-2.11-90.743-18.993-127.04-16.46c-36.297,2.532-82.678,19.837-101.483,12.662c-18.805-7.175-14.633-25.109,7.733-34.187
			c18.717-7.597,67.339-20.171,131.313-13.928c70.303,6.861,134.215,12.942,159.117-8.512
			C1724.765,1586.15,1733.226,1541.131,1733.226,1541.131z"/>
		<path style="fill:#D1A68F;" d="M1701.385,1606.21c-0.769-0.839-2.077-0.896-2.917-0.129c-0.187,0.171-19.292,17.021-68.382,14.335
			c-5.522-0.302-11.191-0.674-16.924-1.084c-21.927-10.762-33.873-29.019-31.966-48.908c1.707-17.81,14.246-32.363,31.948-37.077
			c37.897-10.093,67.742,11.343,68.039,11.56c0.921,0.674,2.214,0.475,2.888-0.444c0.675-0.92,0.479-2.211-0.44-2.887
			c-1.277-0.938-31.687-22.837-71.551-12.224c-19.387,5.163-33.124,21.13-34.997,40.678c-1.832,19.108,7.903,36.754,26.362,48.579
			c-8.456-0.656-16.983-1.371-25.373-2.077c-36.212-3.044-70.418-5.918-92.11-3.564c-47.409,5.15-76.401,12.188-88.632,21.517
			c-0.907,0.692-1.082,1.988-0.389,2.896c0.407,0.533,1.021,0.814,1.644,0.814c0.437-0.001,0.878-0.138,1.252-0.424
			c11.615-8.859,39.932-15.628,86.571-20.693c21.293-2.314,55.308,0.545,91.318,3.573c17.398,1.463,35.389,2.975,52.136,3.892
			c51.044,2.802,70.599-14.675,71.405-15.42C1702.102,1608.35,1702.154,1607.049,1701.385,1606.21z"/>
		<path style="fill:#D1A68F;" d="M1393.17,1535.57c0,0,10.828,12.596,21.755,19.63c10.927,7.034,26.499,0.281,32.408-10.695
			c5.835-10.836-3.835-31.59-4.067-32.086c-9.075,1.579-18.357,4.455-27.482,8.67c-8.315,3.843-15.861,8.522-22.506,13.778
			L1393.17,1535.57z"/>
		<path style="fill:#D1A68F;" d="M1531.417,1504.195c14.274,13.282,37.979,19.374,50.27,6.711
			c17.729-18.258,28.276-21.407,65.842-12.968c37.566,8.439,46.303-21.721,46.303-21.721
			c-43.344-30.474-106.73-11.828-137.04,10.745C1547.121,1494.169,1538.682,1499.798,1531.417,1504.195z"/>
	</g>
</g>
</svg>
