<?xml version="1.0" encoding="utf-8"?>
<!-- Generator: Adobe Illustrator 27.5.0, SVG Export Plug-In . SVG Version: 6.00 Build 0)  -->
<svg version="1.1" id="_x3C_Layer_x3E_" xmlns="http://www.w3.org/2000/svg" xmlns:xlink="http://www.w3.org/1999/xlink" x="0px"
	 y="0px" viewBox="0 0 3375 1500" style="enable-background:new 0 0 3375 1500;" xml:space="preserve">
<rect style="fill:#FFFFFF;" width="3375" height="1500"/>
<g>
	<path style="fill:#FCECDB;" d="M3007.115,1204.42l-1.947,1.947c-38.4,38.291-98.111,71.935-186.596,99.627
		c-17.632,5.624-36.346,10.816-56.249,15.9H418.139c-0.107-1.082-114.77-83.076-106.765-247.389
		c22.175-457.674,503.105-490.99,796.142-520.304c127.411-10.842,419.166,16.21,656.385-78.208
		c148.838-62.028,196.014-116.151,325.163-171.561c73.558-30.505,160.311-52.14,275.729-57.223
		c81.994-3.569,191.572,2.921,292.712,26.395c149.771,31.717,270.054,108.252,273.674,262.424
		c2.078,98.328,41.341,198.13,74.638,288.277c16.875,45.106,32.993,89.133,44.242,131.535
		C3074.83,1049.302,3075.695,1134.541,3007.115,1204.42z"/>
	<g>
		<path style="fill:#FFF3E9;" d="M2992.321,787.218h-308.693V280.046c5.179,1.386,10.301,2.817,15.358,4.305
			c1.533,0.446,3.068,0.902,4.584,1.367c11.779,3.532,23.205,7.344,34.259,11.426c4.108,1.524,8.171,3.087,12.179,4.686
			c56.367,22.489,102.274,52.824,133.781,93.229c12.653,16.223,22.982,34.072,30.727,53.689
			c10.199,25.807,15.943,54.674,16.633,86.925c0.027,1.376,0.064,2.752,0.111,4.128c2.574,80.381,29.582,161.896,58.69,241.003
			C2990.74,782.941,2991.531,785.08,2992.321,787.218z"/>
		<path style="fill:#A8D29F;" d="M2828.578,752.528c-1.205,17.96-9.133,31.966-18.234,42.323c-1.455,1.652-2.94,3.215-4.427,4.682
			c-12.597,12.405-25.703,18.241-25.703,18.241h-110.313c1.454-5.281,4.267-10.007,8.029-13.771
			c5.447-5.445,12.896-8.891,21.149-9.133V647.184c3.75,0.714,7.494,1.441,11.231,2.213c3.757,0.766,7.501,1.582,11.226,2.469
			c3.457,0.816,6.895,1.703,10.313,2.672c3.374,0.957,6.678,1.977,9.906,3.036c-6.94,5.325-14.014,11.876-20.219,18.063
			c-4.268,4.254-8.113,8.336-11.226,11.723c-4.841,5.287-7.883,8.903-7.883,8.903c2.679-1.219,5.307-2.359,7.883-3.432
			c3.859-1.607,7.597-3.049,11.226-4.35c28.848-10.325,50.455-11.441,64.354-10.224c11.002,7.233,20.109,15.415,27.062,24.427
			c-22.036-3.953-56.936,0.619-64.934,1.309c26.359-1.978,63.588,13.183,76.631,19.79
			C2827.883,732.807,2829.254,742.426,2828.578,752.528z"/>
		<path style="fill:#A8D29F;" d="M2931.179,536.029c-3.457-147.226-113.304-223.649-253.62-257.857
			c-2.146,4.059-4.289,8.007-6.285,8.075c-2.716,16.707-2.688,52.305,12.354,82.333c5.104,10.199,11.938,19.756,20.983,27.705
			c4.426-13.108,13.908-30.215,34.175-40.785c0,0-7.335,27.426-7.475,56.497c2.222,0.827,4.527,1.561,6.907,2.23
			c0,0,51.701,11.501,72.906,51.729c9.864-5.327,23.084-10.878,37.142-12.244c0,0-19.227,12.263-29.927,31.19
			c15.056,43.955,68.162,60.323,112.979,55.384C2931.273,538.867,2931.209,537.448,2931.179,536.029z"/>
		<g>
			<path style="fill:#F9DDBF;" d="M2992.321,787.218c4.5,12.179,9.036,24.292,13.536,36.342h-379.043
				c0-3.942,0.531-7.763,1.534-11.398c1.99-7.224,5.839-13.684,10.989-18.835c7.447-7.447,17.627-12.16,28.923-12.495h0.009
				c0.428-0.019,0.855-0.027,1.293-0.027h320.388C2990.74,782.941,2991.531,785.08,2992.321,787.218z"/>
			<path style="fill:#F9DDBF;" d="M2668.261,275.982v513.142h30.726v-505.33C2688.922,280.956,2678.666,278.36,2668.261,275.982z"/>
			<path style="fill:#F9DDBF;" d="M2914.516,449.54c-7.805-19.869-18.168-37.898-30.727-54.225v393.809h30.727V449.54z"/>
		</g>
	</g>
	<g>
		<polygon style="fill:#D39E7A;" points="2225.763,1321.842 2335.568,1321.842 2318.341,1181.534 2208.535,1181.534 		"/>
		<polygon style="fill:#EFCBAB;" points="2230.52,1321.842 2340.325,1321.842 2323.098,1181.534 2213.292,1181.534 		"/>
		<polygon style="fill:#F9DDBF;" points="2236.068,1314.578 2332.992,1314.578 2317.474,1188.188 2220.549,1188.188 		"/>
		<polygon style="fill:#EFCBAB;" points="2227.006,1255.236 2327.391,1255.236 2326.521,1248.158 2226.138,1248.158 		"/>
		<polygon style="fill:#E5BD9E;" points="2325.665,1202.441 2323.098,1181.534 2302.189,1181.534 		"/>
		<polygon style="fill:#E5BD9E;" points="2215.859,1202.441 2213.292,1181.534 2234.199,1181.534 		"/>
		<polygon style="fill:#E5BD9E;" points="2319.419,1321.86 2340.327,1321.86 2337.76,1300.953 		"/>
		<polygon style="fill:#E5BD9E;" points="2251.43,1321.86 2230.521,1321.86 2227.954,1300.953 		"/>
	</g>
	<g>
		<polygon style="fill:#E5BD9E;" points="2977.055,957.197 2820.434,957.197 2796.248,760.227 2952.869,760.227 		"/>
		<polygon style="fill:#FFEAD7;" points="2949.047,765.912 2801.468,765.912 2824.256,951.512 2971.836,951.512 		"/>
		<polygon style="fill:#F9DDBF;" points="2967.174,946.429 2827.672,946.429 2818.339,870.452 2806.129,770.996 2945.632,770.996 
			2958.797,878.184 		"/>
		<path style="fill:#E5BD9E;" d="M2967.174,946.429h-139.502l-9.333-75.977c22.921,0.706,52.962,3.933,72.562,14.853
			c18.604,10.367,44.645,1.789,67.896-7.121L2967.174,946.429z"/>
		<path style="fill:#EAC6AD;" d="M2815.316,845.837c0,0,65.712,3.16,88.124,9.884c22.412,6.724,51.99-4.942,51.99-4.942
			l-0.903-7.355c0,0-14.331,3.657-21.279,7.192c-6.947,3.537-22.859,5.106-27.118,3.313c-4.259-1.793-43.479-11.372-53.341-10.505
			c-9.861,0.868-10.374-14.562-39.365-13.011L2815.316,845.837z"/>
		<path style="fill:#EAC6AD;" d="M2905.55,830.303c0-3.044,2.467-5.512,5.511-5.512s5.511,2.468,5.511,5.512
			c0,3.044-2.467,5.511-5.511,5.511S2905.55,833.347,2905.55,830.303z"/>
	</g>
	<g>
		<path style="fill:#F9DDBF;" d="M2173.525,305.947h-87.957c-126.508,54.882-174.186,108.583-321.668,170.047
			c-0.017,0.007-0.034,0.013-0.051,0.02V821.16h409.676V305.947z"/>
		<path style="fill:#FFEAD7;" d="M2161.7,320.822h-108.671c-100.327,48.302-151.879,96.315-277.344,150.182v335.3H2161.7V320.822z"
			/>
		<path style="fill:#FCECDB;" d="M2151.148,334.117h-124.603c-81.286,42.489-133.549,85.191-240.29,132.287V793.01h364.893V334.117z
			"/>
		<path style="opacity:0.3;fill:#EAC6AD;" d="M1784.851,616.836c0,0,105.375-7.731,181.052,38.725
			c75.677,46.455,186.632-11.579,186.632-11.579v151.565h-367.684V616.836z"/>
		<path style="opacity:0.2;fill:#EAC6AD;" d="M1784.851,600.268v-21.383c0,0,158.097-19.023,192.495-7.188
			c34.398,11.836,163.25-33.719,173.803-27.211v27.211C2151.148,571.697,1829.426,590.041,1784.851,600.268z"/>
		<circle style="opacity:0.2;fill:#EAC6AD;" cx="1873.221" cy="511.815" r="9.25"/>
	</g>
	<g>
		<path style="fill:#F99746;" d="M1266.35,898.703v48.309c0,5.292-4.33,9.621-9.622,9.621h-227.185
			c-5.292,0-9.621-4.329-9.621-9.621v-48.309c0-5.292,4.329-9.622,9.621-9.622h227.185
			C1262.02,889.081,1266.35,893.411,1266.35,898.703z"/>
		<g>
			<path style="fill:#6BB7BF;" d="M1165.033,844.966c-0.85,1.804-2.799,2.558-2.799,2.558c-1.387-0.049-33.051-0.963-37.043,41.558
				h-10.119c1.347-14.368,7.954-33.973,25.971-43.932c10.832-5.981,23.773-5.195,24.207-5.18c0,0,0.008,0.017,0.023,0.057
				C1165.45,840.363,1166.308,842.287,1165.033,844.966z"/>
		</g>
		<g>
			<path style="fill:#599DAD;" d="M1165.033,844.966c-0.85,1.804-2.799,2.558-2.799,2.558c-1.387-0.049-33.051-0.963-37.043,41.558
				h-5.107c1.346-14.368,7.954-33.973,25.971-43.932c6.774-3.735,14.368-4.835,19.219-5.123
				C1165.45,840.363,1166.308,842.287,1165.033,844.966z"/>
		</g>
		<path style="fill:#AFCDFB;" d="M1162.179,847.623c0,0-2.206,7.617-1.403,8.419c0.802,0.802,2.152,0.327,2.305,0
			C1163.781,854.539,1162.179,847.623,1162.179,847.623z"/>
		<path style="fill:#ED7D2B;" d="M1266.35,943.435v3.576c0,5.292-4.33,9.621-9.622,9.621h-227.185c-5.292,0-9.621-4.329-9.621-9.621
			v-48.309c0-5.292,4.329-9.622,9.621-9.622h31.03C1083.248,902.231,1174.238,950.908,1266.35,943.435z"/>
	</g>
	<path style="opacity:0.5;fill:#E8C6A7;" d="M2639.078,1319.689l2.759-363.496l19.547,11.264l-17.103,352.232
		c-0.046,1.326-0.395,2.411-0.773,2.411h-3.825C2639.303,1322.101,2639.031,1321.016,2639.078,1319.689z"/>
	<g>
		<path style="fill:#F1A34F;" d="M2660,956.193l44.632,363.496c0.163,1.327-0.784,2.412-2.11,2.412h-13.35
			c-1.32,0-2.541-1.085-2.703-2.412l-44.632-363.496c-0.163-1.327,0.79-2.419,2.11-2.419h13.349
			C2658.623,953.774,2659.838,954.866,2660,956.193z"/>
		<path style="fill:#2B478B;" d="M2660,956.193l1.384,11.264h-18.164l-1.383-11.264c-0.163-1.327,0.79-2.419,2.11-2.419h13.349
			C2658.623,953.774,2659.838,954.866,2660,956.193z"/>
		<path style="fill:#2B478B;" d="M2703.439,1309.974l1.192,9.716c0.163,1.327-0.784,2.412-2.11,2.412h-13.35
			c-1.32,0-2.541-1.085-2.703-2.412l-1.193-9.716H2703.439z"/>
		<path style="fill:#E27F2B;" d="M2693.283,1300.299L2693.283,1300.299c-0.757,0-1.452-0.618-1.545-1.375l-39.285-319.954
			c-0.093-0.757,0.45-1.376,1.207-1.376l0,0c0.756,0,1.451,0.619,1.544,1.376l39.285,319.954
			C2694.582,1299.681,2694.039,1300.299,2693.283,1300.299z"/>
	</g>
	<g>
		<path style="fill:#F99746;" d="M2577.689,1106.318v32.751c0,6.761-5.532,12.293-12.293,12.293h-193.611
			c-6.761,0-12.292-5.532-12.292-12.293v-32.751c0-6.761,5.531-12.292,12.292-12.292h193.611
			C2572.157,1094.026,2577.689,1099.558,2577.689,1106.318z"/>
		<path style="fill:#ED7D2B;" d="M2577.689,1133.107v5.962c0,6.761-5.532,12.293-12.293,12.293h-193.611
			c-6.761,0-12.292-5.532-12.292-12.293v-6.454h214.673C2575.385,1132.615,2576.572,1132.789,2577.689,1133.107z"/>
		<g>
			<path style="fill:#E8C6A7;" d="M2406.104,1151.362l-8.729,33.057c0,0,0,0-0.01,0.011l-36.335,137.586h-3.821l21-114.148
				c0.021-0.112,0.051-0.225,0.072-0.348l10.387-56.455L2406.104,1151.362z"/>
		</g>
		<path style="fill:#C69D7B;" d="M2406.104,1151.362l-8.729,33.057c0,0,0,0-0.01,0.011c-0.502,0.245-16.391,8.461-19.084,23.09
			l10.387-56.455L2406.104,1151.362z"/>
		<g>
			<path style="fill:#E8C6A7;" d="M2577.689,1322.016h-3.821l-29.604-112.079c0-0.01,0-0.01,0-0.021l-6.73-25.486
				c-0.011-0.011-0.011-0.011-0.011-0.011l-8.728-33.057l17.436-0.298l5.941,32.279l4.445,24.176
				c0.021,0.123,0.052,0.235,0.072,0.348L2577.689,1322.016z"/>
		</g>
		<path style="fill:#E8C6A7;" d="M2518.674,1194.652c-0.021,0.011-0.041,0-0.061-0.041
			C2518.531,1194.468,2518.551,1194.499,2518.674,1194.652z"/>
		<path style="fill:#C69D7B;" d="M2552.172,1183.344c-3.217,4.682-7.652,13.48-7.908,26.572l-6.73-25.486
			c-0.011-0.011-0.011-0.011-0.011-0.011l-8.728-33.057l17.436-0.298L2552.172,1183.344z"/>
	</g>
	<g id="man_6_">
		<path style="fill:#C18B67;" d="M2281.128,428.868c-2.618-1.006-4.741,0.303-4.741,2.921c0,0.314,0.034,0.633,0.093,0.952h-28.34
			c-0.477,0-0.867,0.392-0.867,0.868c0,0.478,0.391,0.867,0.867,0.867h28.934c0.829,1.701,2.326,3.211,4.055,3.874
			c2.619,1.006,4.741-0.302,4.741-2.921C2285.869,432.81,2283.747,429.873,2281.128,428.868z"/>
		<path style="fill:#FFB27D;" d="M2274.207,462.623c0,0,0.077-19.617-3.021-25.324c-3.1-5.707-10.197-12.842-14.24-10.559
			s-5.283,21.398-4.043,24.824c1.238,3.425,10.422,16.266,10.422,16.266L2274.207,462.623z"/>
		<g>
			<path style="fill:#FFB27D;" d="M2339.42,446.863c0,0-8.15-12.232-11.892-13.025c-3.741-0.794-14.755,2.698-16.194,5.555
				c-1.438,2.858,8.848,8.036,11.354,9.518c2.505,1.48,2.967,8.182,10.094,6.524C2339.908,453.776,2339.42,446.863,2339.42,446.863z
				"/>
			<g>
				<path style="fill:#E5BD9E;" d="M2329.198,418.573l-9.14,63.886c-0.233,1.635-1.765,2.788-3.404,2.553
					c-1.635-0.233-2.782-1.77-2.549-3.404l9.14-63.885c0.234-1.641,1.765-2.788,3.399-2.555c0.82,0.117,1.515,0.559,1.979,1.178
					C2329.088,416.957,2329.315,417.753,2329.198,418.573z"/>
				<polygon style="fill:#C18B67;" points="2344.099,423.856 2330.845,423.977 2311.771,420.335 2312.858,412.732 2332.175,414.678 
					2344.807,418.904 				"/>
				<path style="fill:#C18B67;" d="M2329.198,418.573l-1.839,12.849c-2.601,0.271-5.953-0.852-5.953-0.852l1.839-12.848
					c0.234-1.641,1.765-2.788,3.399-2.555c0.82,0.117,1.515,0.559,1.979,1.178C2329.088,416.957,2329.315,417.753,2329.198,418.573z
					"/>
				<path style="fill:#C18B67;" d="M2322.874,462.781l-2.815,19.678c-0.233,1.635-1.765,2.788-3.404,2.553
					c-1.635-0.233-2.782-1.77-2.549-3.404l2.816-19.678C2316.922,461.93,2318.877,463.543,2322.874,462.781z"/>
			</g>
			<path style="fill:#FFB27D;" d="M2331.838,443.292c0,0-7.752-4.287-9.575-2.581c-0.968,0.908,3.72,4.166,4.188,5.783
				c0.468,1.618,1.492,5.896,3.891,5.512C2332.738,451.62,2334.581,444.253,2331.838,443.292z"/>
		</g>
		<path style="fill:#599DAD;" d="M2332.93,449.258c4.5-4.69,7.555-2.929,7.555-2.929s53.133,40.799,58.204,43.765
			c5.07,2.965,74.179,4.969,74.179,4.969s27.681-0.313,34.396,13.898c5.836,12.35,1.717,22.981-4.307,30.794
			c-7.18,9.31-19.388,13.181-30.673,9.888c-25.332-7.391-75.724-22.484-85.152-28.25c-20.985-12.836-58.88-64.089-58.88-64.089
			S2329.396,452.941,2332.93,449.258z"/>
		<path style="fill:#2C3A64;" d="M2517.437,1094.026c4.372-3.742,1.752-24.713,1.752-24.713s-22.522-18.019-25.618-4.224
			c-3.098,13.795-21.396,19.988-31.813,21.678c-6.947,1.127-9.259,4.882-10.028,7.259H2517.437z"/>
		<path style="fill:#35488B;" d="M2519.954,1070.289c-20.853,3.234-28.476-1.729-28.476-1.729
			c0.27-20.537-6.063-66.845-14.746-120.013c-11.444-70.107-26.971-152.144-36.778-202.719c-5.644-29.09-9.399-47.768-9.399-47.768
			l17.042-0.334l84.991-1.683c0,0-6.358,94.065-4.62,140.522c0.419,11.091,1.302,19.478,2.835,23.214
			C2545.287,894.977,2519.954,1070.289,2519.954,1070.289z"/>
		<path style="fill:#2C3A64;" d="M2527.968,836.565c-11.546,21.606-40.469,77.257-51.235,111.981
			c-11.444-70.107-26.971-152.144-36.778-202.719c0.483-19.114,2.771-35.82,7.643-48.102l84.991-1.683
			C2532.588,696.044,2526.229,790.109,2527.968,836.565z"/>
		<path style="fill:#2C3A64;" d="M2445.852,1094.026c4.371-3.742,1.752-24.713,1.752-24.713s-22.523-18.019-25.62-4.224
			s-21.396,19.988-31.812,21.678c-6.949,1.127-9.26,4.882-10.03,7.259H2445.852z"/>
		<path style="fill:#35488B;" d="M2393.605,696.012c0,0,33.391,308.938,26.776,371.242c0,0,7.137,5.59,28.194,4.305
			c0,0,38.141-177.976,30.064-206.775c-5.617-20.027,16.754-161.441,16.754-161.441L2393.605,696.012z"/>
		<path style="fill:#FFB27D;" d="M2475.805,475.092c0,0-42.453,21.204-63.518,11.533c0,0,8.85-11.455,18.756-16.209
			c-0.211-3.777-0.331-7.188-0.394-10.203c-0.187-10.046,0.315-15.7,0.315-15.7l18.309-13.319l12.423-9.039
			c-0.71,5.595-0.819,10.761-0.504,15.504C2462.836,462.091,2475.805,475.092,2475.805,475.092z"/>
		<path style="fill:#ED975D;" d="M2461.192,437.658c0,0-9.901,19.739-30.543,22.555c-0.187-10.046,0.315-15.7,0.315-15.7
			l18.309-13.319C2457.278,434.206,2461.192,437.658,2461.192,437.658z"/>
		<path style="fill:#FFB27D;" d="M2426.229,443.234c0,0,38.003,13.533,46.066-10.263s18.399-38.075-5.523-47.722
			c-23.923-9.648-31.738-2.174-36.362,5.115C2425.787,397.652,2416.551,439.1,2426.229,443.234z"/>
		<path style="fill:#6BB7BF;" d="M2535.275,696.016c-5.95,12.393-137.65,11.845-144.157,3.105
			c-2.649-3.552-5.681-39.102-7.419-80.438c-0.958-22.898-1.525-47.571-1.414-69.559c0.196-35.876,2.204-64.594,7.262-66.789
			c28.226-12.243,45.676-20.034,82.547-18.909c11.37,0.353,21.661,6.917,26.617,17.153c8.859,18.332,21.429,50.816,22.387,89.184
			C2522.586,628.883,2542.769,680.398,2535.275,696.016z"/>
		<path style="fill:#599DAD;" d="M2424.894,524.777c0,0-4.286,61.824-41.194,93.906c-0.958-22.898-1.525-47.571-1.414-69.559
			C2393.313,534.381,2407.861,523.764,2424.894,524.777z"/>
		<path style="fill:#6BB7BF;" d="M2443.052,464.742c0,0-40.507,0.252-53.216,12.057c-9.11,8.461-67.643,54.595-71.361,53.975
			c-3.719-0.62-41.401-75.848-41.401-75.848s-18.579,1.574-21.679,9.615c0,0,17.523,93.925,55.33,114.344
			c0,0,95.575-18.129,123.931-49.738C2449.262,512.865,2443.052,464.742,2443.052,464.742z"/>
		<path style="fill:#2B478B;" d="M2427.915,371.797c0,0,2.247,22.7,9.065,28.898c6.816,6.197,5.017,14.727,5.762,15.967
			c0.746,1.238,7.802-2.407,9.045-0.317c2.856,4.803-1.608,8.305-4.426,9.466c-2.818,1.163,7.195,20.649,14.553,21.367
			c12.718,1.241,32.363-33.928,34.022-44.236c2.17-13.48-5.464-34.504-27.349-33.469
			C2434.19,371.1,2427.223,363.641,2427.915,371.797z"/>
	</g>
	<g>
		<g>
			<path style="fill:#599DAD;" d="M1511.257,1018.261c0,0-13.995-10.413-16.668-11.348c-2.673-0.936-11.467-2.063-11.889-1.336
				c-0.422,0.727-1.667,2.951-0.141,3.743c1.526,0.791,3.447,0.56,2.863,1.08c-0.584,0.521-6.327-2.506-7.716,0.592
				c-1.391,3.1-2.75,13.781,3.99,17.158s23.567,0.766,24.77,1.162C1516.673,1032.664,1511.257,1018.261,1511.257,1018.261z"/>
			<path style="fill:#599DAD;" d="M1506.228,1021.973c0.499-8.273,4.685-9.068,4.685-9.068s80.689-3.941,87.668-5.221
				c6.979-1.28,72.219-56.18,72.219-56.18s25.264-23.076,42.504-14.746c14.981,7.236,19.455,20.988,19.979,33.559
				c0.624,14.98-7.613,28.798-20.574,34.871c-29.091,13.634-87.264,40.376-100.436,42.512
				c-29.319,4.752-104.097-14.034-104.097-14.034S1505.836,1028.471,1506.228,1021.973z"/>
		</g>
		<rect x="1207.938" y="954.914" style="fill:#CC9E7F;" width="308.9" height="367.099"/>
		<rect x="1318.816" y="954.914" style="fill:#F9DDBF;" width="267.859" height="367.099"/>
		<rect x="1318.816" y="1000.955" style="fill:#E5BD9E;" width="267.859" height="1.795"/>
		<rect x="1318.816" y="1274.176" style="fill:#E5BD9E;" width="267.859" height="3.464"/>
		<circle style="fill:#E8C6A7;" cx="1541.68" cy="978.832" r="14.883"/>
		<path style="fill:#2C3A64;" d="M1657.438,1322.071h-59.918c0.944-2.282,3.228-5.256,8.789-6.229
			c9.437-1.654,25.82-6.76,23.721-20.382c-2.128-13.807,20.854-15.588,20.854-15.588S1660.445,1316.815,1657.438,1322.071z"/>
		<path style="fill:#E8C6A7;" d="M1380.208,993.715h-39.696c-5.91,0-10.745-4.836-10.745-10.744v-8.277
			c0-5.908,4.835-10.744,10.745-10.744h39.696c5.909,0,10.745,4.836,10.745,10.744v8.277
			C1390.953,988.879,1386.117,993.715,1380.208,993.715z"/>
		<path style="fill:#E8C6A7;" d="M1509.947,991.707h-37.717c-2.515,0-4.571-2.057-4.571-4.571v-14.138
			c0-2.515,2.057-4.571,4.571-4.571h37.717c2.514,0,4.571,2.057,4.571,4.571v14.138
			C1514.519,989.65,1512.461,991.707,1509.947,991.707z"/>
		<ellipse style="fill:#CC9E7F;" cx="1470.759" cy="1132.584" rx="97.347" ry="102.972"/>
		<g>
			<path style="fill:#2B478B;" d="M1762.359,1183.481c-0.494,1.17-1.144,2.2-1.947,3.08c-0.936,1.026-2.617,2.024-4.961,2.987
				c-7.818,3.223-22.949,6.035-41.909,7.964c-19.698,2.002-43.523,3.065-67.579,2.652c-7.403-0.122-14.834-0.387-22.168-0.812
				c-53.195-3.026-101.533-14.188-101.588-39.299c-0.063-25.541,81.412-44.509,143.225-55.216c6.397-1.111,12.59-2.139,18.451-3.065
				c28.748-4.564,49.744-6.952,49.744-6.952s1.17,2.066,3.052,5.591c0.936,1.754,2.042,3.859,3.28,6.258
				c6.168,12.021,15.332,31.227,20.328,48.17C1763.714,1166.479,1765.191,1177.039,1762.359,1183.481z"/>
			<path style="fill:#2C3A64;" d="M1762.359,1183.481c-2.229,2.045-4.542,4.071-6.908,6.067c-7.818,3.223-22.949,6.035-41.909,7.964
				c-19.698,2.002-110.034,2.119-134.091,1.705c28.241-45.645,113.922-54.702,119.184-60.755
				c0.427-0.497,56.656-0.566,61.652,16.377C1763.714,1166.479,1765.191,1177.039,1762.359,1183.481z"/>
		</g>
		<path style="fill:#2B478B;" d="M1526.068,1171.605c0,0,91.789,114.863,97.97,128.761c0,0,25.29,2.354,31.374-15.713
			c0,0-44.185-123.406-63.604-133.576C1572.39,1140.906,1526.068,1171.605,1526.068,1171.605z"/>
		<g>
			<path style="fill:#FFB27D;" d="M1693.422,908.635c0,0-25.596,35.03-48.411,36.904c0,0,2.916-13.186,9.649-21.5
				c-1.811-2.92-3.383-5.591-4.733-7.972c-4.482-7.941-6.468-12.688-6.468-12.688l10.494-18.986l2.166-10.207
				c1.775,4.793,3.852,9.213,6.17,12.86C1674.244,905.817,1693.422,908.635,1693.422,908.635z"/>
			<path style="fill:#ED975D;" d="M1663.287,886.859c0,0,3.714,17.55-13.36,29.208c-4.482-7.941-6.468-12.688-6.468-12.688
				l10.494-18.986C1662.34,883.15,1663.287,886.859,1663.287,886.859z"/>
			<path style="fill:#FFB27D;" d="M1640.266,913.963c0,0,32.107-17.492,20.906-37.318c-11.199-19.827-14.6-35.438-35.572-25.108
				c-20.973,10.329-20.648,20.126-18.519,27.653C1609.21,886.716,1631.626,918.002,1640.266,913.963z"/>
			<path style="fill:#2B478B;" d="M1661.059,837.17c0.176-0.498,0.799-1.086,2.412-1.814c0,0-1.639-0.327-3.418,0.309
				c-1.243-2.194-4.054-5.841-8.383-5.319c0,0,2.563,0.329,3.794,2.695c-6.407-2.999-17.532-2.687-43.792,9.955
				c-34.607,16.658-13.867,35.334-8.174,36.316c5.693,0.981,14.399-11.104,23.281-13.736c8.883-2.634,15.404,9.375,18.997,9.981
				c3.593,0.605,1.259-2.018,4.511-5.36c3.254-3.342,6.199,3.166,6.729,7.934c0.529,4.767,8.167,8.376,8.167,8.376s0,0,3.171-8.126
				c3.17-8.125-1.48-35.559-6.07-40.016C1661.877,837.971,1661.471,837.57,1661.059,837.17z"/>
		</g>
		<path style="fill:#233862;" d="M1852.76,1282.69c0,0,7.469,12.331,9.205,16.327c1.736,3.995-1.67,12.5-6.792,13.779
			c-4.517,1.129-5.192,9.842-5.192,9.842h21.895c2.318,0,4.409-1.389,5.302-3.527c3.088-7.395,3.794-17.008,4.415-20.225
			c1.306-6.762,3.894-12.435,2.75-19.323c-1.139-6.862-11.923-10.834-31.582-10.769
			C1831.163,1268.867,1852.76,1282.69,1852.76,1282.69z"/>
		<path style="fill:#2B478B;" d="M1783.387,1155.876c-6.229,23.632-21.326,61.685-38.563,95.423
			c-8.739,17.115-18.035,33.125-26.998,45.572c-10.097,14.021-19.756,23.513-27.742,25c-2.11,0.391-4.1,0.223-5.95-0.567
			c-4.593-1.962-7.948-7.354-10.31-15.19v-0.01c-14.578-48.279,8.218-189.07,8.218-189.07s22.964-0.195,47.34,1.758
			c25.26,2.035,52.034,6.368,56.386,15.6C1787.208,1137.449,1786.205,1145.184,1783.387,1155.876z"/>
		<path style="fill:#6BB7BF;" d="M1788.39,1132.467c-16.512,17.496-137.753-18.699-127.591-27.922
			c2.585-2.343,1.701-5.157,2.752-8.932c5.029-17.896-4.982-48.521-9.277-60.393c-1.005-2.751-1.692-4.49-1.822-4.843
			c-4.101-11.083-7.271-22.62-9.344-33.767c-3.998-21.393-3.924-41.287,1.543-53.477c0.037-0.065,0.047-0.119,0.084-0.166
			c22.712-6.639,35.216-40.052,35.216-40.052s71.948,20.435,98.063,123.101c0,0,1.348,6.545,3.012,16.371h0.01
			c0.502,3.013,1.042,6.341,1.581,9.883c2.789,18.269,4.407,41.696,6.062,59.138c0.064,0.604,0.121,1.218,0.186,1.851
			C1789.69,1120.779,1791.132,1129.557,1788.39,1132.467z"/>
		<path style="fill:#2B478B;" d="M1855.075,1291.033c-3.16,0.028-12.662,1.488-25.631,3.766
			c-46.986,8.228-139.351,27.109-139.351,27.109s0-0.009-0.01-0.037c-0.074-0.623-1.098-8.859-1.339-19.486
			c-0.371-16.947,1.265-39.977,11.966-47.813c5.689-4.175,23.103-4.602,44.113-3.272c44.281,2.789,104.525,13.425,104.525,13.425
			C1859.203,1276.847,1855.075,1291.033,1855.075,1291.033z"/>
		<path style="fill:#2C3A64;" d="M1783.387,1155.876c-24.44-0.772-85.744-30.866-84.74-31.107
			c11.416-2.808,21.624-4.751,30.735-5.978c25.26,2.035,52.034,6.368,56.386,15.6
			C1787.208,1137.449,1786.205,1145.184,1783.387,1155.876z"/>
		<g>
			<ellipse style="fill:#F99746;" cx="1454.883" cy="1132.584" rx="92.494" ry="102.972"/>
			<path style="fill:#E5BD9E;" d="M1529.471,1132.584c0,11.847-2.228,23.119-6.249,33.31
				c-11.526,29.279-37.786,49.722-68.342,49.722c-41.188,0-74.583-37.169-74.583-83.031c0-34.017,18.37-63.242,44.664-76.073
				c9.16-4.478,19.278-6.958,29.919-6.958C1496.076,1049.553,1529.471,1086.722,1529.471,1132.584z"/>
			<path style="fill:#EFCBAB;" d="M1529.471,1132.584c0,11.847-2.228,23.119-6.249,33.31c-9.161,4.477-19.287,6.957-29.929,6.957
				c-41.188,0-74.582-37.168-74.582-83.031c0-11.846,2.228-23.11,6.25-33.309c9.16-4.478,19.278-6.958,29.919-6.958
				C1496.076,1049.553,1529.471,1086.722,1529.471,1132.584z"/>
		</g>
		<path style="fill:#599DAD;" d="M1704.904,973.071c0,0-1.423,111.2-41.354,122.542c5.029-17.896-4.982-48.521-9.277-60.393
			C1664.564,1006.624,1683.512,977.775,1704.904,973.071z"/>
		<path style="fill:#2B478B;" d="M1692.019,907.922c0,0-30.755,6.399-33.759,33.35c-2.187,19.628,19.273,64.073,19.273,64.073
			l4.087-4.086c0,0-18.838-54.877-15.94-64.213c3.716-11.97,21.397-29.878,37.66-22.725L1692.019,907.922z"/>
		<path style="fill:#2B478B;" d="M1788.39,1132.467c-16.512,17.496-140.364-18.315-130.202-27.538
			c2.584-2.343,4.313-5.541,5.363-9.315c5.029-17.896-4.982-48.521-9.277-60.393c-1.005-2.751-1.692-4.49-1.822-4.843l6.256-6.248
			l22.918-22.87c0,0,6.776,7.688,19.588,16.409c16.789,11.444,43.946,24.664,79.813,24.72h0.01c0.502,3.013,1.042,6.341,1.581,9.883
			c2.789,18.269,4.407,41.696,6.062,59.138c0.064,0.604,0.121,1.218,0.186,1.851
			C1789.69,1120.779,1791.132,1129.557,1788.39,1132.467z"/>
		<path style="fill:#2C3A64;" d="M1701.213,1017.669c-4.584,32.325-14.829,71.456-37.662,77.944
			c5.029-17.896-4.982-48.521-9.277-60.393c1.338-3.709,2.816-7.428,4.434-11.091l22.918-22.87
			C1681.625,1001.26,1688.401,1008.947,1701.213,1017.669z"/>
		<g>
			<path style="fill:#FFB27D;" d="M1537.08,1072.334c0,0-16.763-3.683-19.578-3.465c-2.814,0.218-11.363,2.641-11.487,3.439
				s-0.462,3.227,1.241,3.327c1.701,0.101,3.395-0.847,3.045-0.163c-0.35,0.682-6.771,0.259-6.923,3.507
				c-0.15,3.249,2.505,13.118,9.978,13.458c7.473,0.342,22.084-8.462,23.342-8.582
				C1547.366,1082.832,1537.08,1072.334,1537.08,1072.334z"/>
			<path style="fill:#6BB7BF;" d="M1533.787,1077.529c-2.569-7.429,1.012-9.746,1.012-9.746s73.204-34.716,79.191-38.54
				s46.23-77.12,46.23-77.12s14.92-29.971,33.92-29.368c16.512,0.523,25.688,10.816,30.777,21.608
				c6.065,12.858,3.506,28.135-6.26,38.469c-21.918,23.197-65.938,69.129-77.343,76.102
				c-25.383,15.519-101.444,28.066-101.444,28.066S1535.805,1083.365,1533.787,1077.529z"/>
		</g>
		<path style="fill:#2C3A64;" d="M1829.444,1294.799c-46.986,8.228-139.351,27.109-139.351,27.109s0-0.009-0.01-0.037
			c-2.11,0.391-4.1,0.223-5.95-0.567c-4.593-1.962-7.948-7.354-10.31-15.19v-0.01c0,0,5.457-1.59,14.921-3.719
			c7.447-1.683,17.376-3.691,29.081-5.514C1747.455,1292.242,1788.482,1288.773,1829.444,1294.799z"/>
	</g>
	<g>
		<rect x="972.152" y="954.914" style="fill:#F9DDBF;" width="341.953" height="367.102"/>
		<g>
			<g>
				<rect x="1158.809" y="954.913" style="fill:#CC9E7F;" width="1.859" height="367.103"/>
			</g>
			<path style="fill:#CC9E7F;" d="M1130.786,1133.477c0-5.686,3.55-10.297,7.928-10.297s7.927,4.611,7.927,10.297
				c0,5.688-3.549,10.299-7.927,10.299S1130.786,1139.164,1130.786,1133.477z"/>
			<path style="fill:#CC9E7F;" d="M1174.559,1133.477c0-5.686,3.549-10.297,7.928-10.297s7.928,4.611,7.928,10.297
				c0,5.688-3.549,10.299-7.928,10.299S1174.559,1139.164,1174.559,1133.477z"/>
		</g>
	</g>
	<g>
		<path style="fill:#E5BD9E;" d="M3050.059,955.842c-0.082-0.309-0.17-0.618-0.252-0.927h-287.508v366.98h0.024
			c19.903-5.084,38.617-10.276,56.249-15.9c88.484-27.692,148.195-61.336,186.596-99.627l1.947-1.947
			C3075.695,1134.541,3074.83,1049.302,3050.059,955.842z"/>
		<path style="fill:#F9DDBF;" d="M2818.563,1305.997c0.003-0.001,0.007-0.002,0.01-0.003
			c88.484-27.692,148.195-61.336,186.596-99.627l1.947-1.947c68.58-69.879,67.715-155.118,42.943-248.578
			c-0.082-0.309-0.17-0.618-0.252-0.927h-231.244V1305.997z"/>
		<g>
			<g>
				<path style="fill:#CC9E7F;" d="M3007.075,954.915v248.245c-0.614,0.622-1.227,1.254-1.859,1.868V954.915H3007.075z"/>
			</g>
			<path style="fill:#CC9E7F;" d="M2977.197,1133.477c0-5.686,3.55-10.297,7.928-10.297s7.928,4.611,7.928,10.297
				c0,5.688-3.55,10.299-7.928,10.299S2977.197,1139.164,2977.197,1133.477z"/>
			<path style="fill:#CC9E7F;" d="M3020.971,1133.477c0-5.686,3.549-10.297,7.927-10.297c4.379,0,7.928,4.611,7.928,10.297
				c0,5.688-3.549,10.299-7.928,10.299C3024.52,1143.775,3020.971,1139.164,3020.971,1133.477z"/>
		</g>
	</g>
	<g>
		<g>
			<path style="fill:#599DAD;" d="M850.057,416.45c0,0-22.482-26.229-1.387-42.89c0,0,15.409-9.328,27.974-8.571
				c0,0-17.804,29.855-12.044,32.824c5.76,2.97,17.44-34.697,17.44-34.697s35.066-3.4,46.347,2.023c0,0-29.977,24.531-23.663,25.992
				c6.314,1.46,38.692-22.618,38.692-22.618s32.638,5.554,30.897,25.463c-1.74,19.91-12.985,26.059-17.929,25.529
				c-4.942-0.529-33.856-11.566-34.485-7.518c-0.63,4.051,16.774,17.285,28.962,17.905c0,0-23.01,25.376-38.303,18.052
				c-15.292-7.323-16.598-18.932-26.131-23.286c-9.533-4.355-17.67-4.344-13.734,0.097c3.935,4.441,21.188,8.758,26.641,18.4
				c5.451,9.642,10.342,16.146-5.48,13.766c-15.822-2.381-41.54-13.957-42.668-27.215C850.057,416.45,850.057,416.45,850.057,416.45
				z"/>
			<g>
				<path style="fill:#599DAD;" d="M958.277,394.515c0,0-88.644-3.416-108.221,21.936c0,0-4.33,12.966-17.652,24.773l-2.076,5.659
					c0,0,15.359-16.196,20.857-17.176C851.185,429.707,842.589,398.299,958.277,394.515z"/>
				<path style="fill:#599DAD;" d="M832.404,441.224c0,0-19.027,14.071-20.35,39.214l3.455,0.309c0,0,6.076-25.997,17.059-36.163
					C843.554,434.417,832.404,441.224,832.404,441.224z"/>
			</g>
		</g>
		<g>
			<path style="fill:#79C8CC;" d="M771.449,383.464c0,0,35.765-20.027,19.074-47.208c0,0-13.352-16.689-27.657-20.981
				c0,0,7.63,40.532,0,41.486s-5.245-45.777-5.245-45.777s-37.671-18.121-52.454-16.69c0,0,23.366,39.579,15.737,38.625
				c-7.631-0.953-33.857-41.009-33.857-41.009s-38.625-7.153-44.824,15.735c-6.198,22.89,3.815,34.334,9.537,35.765
				c5.723,1.43,42.439,0.953,41.486,5.722c-0.953,4.769-25.75,12.398-39.578,8.106c0,0,15.259,37.671,35.286,35.765
				c20.028-1.908,26.227-14.307,38.625-15.26c12.398-0.953,21.458,2.384,15.259,5.722c-6.199,3.339-27.18,1.095-37.193,9.608
				c-10.014,8.513-18.12,13.758,0.477,17.572c18.598,3.815,51.977,1.431,58.652-12.875
				C771.449,383.464,771.449,383.464,771.449,383.464z"/>
			<g>
				<path style="fill:#6BB7BF;" d="M659.867,314.798c0,0,100.138,32.426,111.582,68.666c0,0-0.477,16.213,9.537,34.811v7.153
					c0,0-10.49-24.32-16.213-27.658C764.773,397.77,787.185,366.298,659.867,314.798z"/>
				<path style="fill:#6BB7BF;" d="M780.986,418.274c0,0,15.443,23.45,6.64,51.997l-3.974-1.067c0,0,3.857-31.441-4.223-47.255
					C771.35,406.135,780.986,418.274,780.986,418.274z"/>
			</g>
		</g>
		<g>
			<path style="fill:#6BB7BF;" d="M828.348,355.844c0,0-47.144-26.4-25.144-62.23c0,0,17.6-22,36.458-27.657
				c0,0-10.059,53.429,0,54.686c10.057,1.258,6.914-60.343,6.914-60.343s49.658-23.886,69.143-22.001
				c0,0-30.799,52.171-20.742,50.915c10.057-1.257,44.629-54.058,44.629-54.058s50.914-9.429,59.086,20.743
				c8.172,30.172-5.028,45.258-12.572,47.144c-7.542,1.886-55.942,1.257-54.685,7.543c1.258,6.285,33.943,16.343,52.172,10.686
				c0,0-20.114,49.658-46.514,47.143c-26.401-2.515-34.572-18.857-50.916-20.114c-16.343-1.258-28.285,3.143-20.114,7.543
				c8.172,4.399,35.829,1.441,49.029,12.663c13.2,11.223,23.886,18.138-0.628,23.165c-24.516,5.029-68.516,1.887-77.315-16.971
				S828.348,355.844,828.348,355.844z"/>
			<g>
				<path style="fill:#599DAD;" d="M975.435,265.328c0,0-132.002,42.743-147.087,90.516c0,0,0.628,21.371-12.572,45.886v9.429
					c0,0,13.828-32.058,21.372-36.457C837.148,374.701,807.604,333.215,975.435,265.328z"/>
				<path style="fill:#599DAD;" d="M815.775,401.729c0,0-20.357,30.913-8.751,68.542l5.236-1.406c0,0-5.083-41.447,5.567-62.292
					C828.479,385.728,815.775,401.729,815.775,401.729z"/>
			</g>
		</g>
		<path style="fill:#F1A34F;" d="M826.759,551.873c51.001,0,92.346-41.345,92.346-92.347H734.412
			C734.412,510.528,775.757,551.873,826.759,551.873z"/>
		<path style="fill:#FFB973;" d="M849.482,551.166c-3.756,0.47-7.586,0.707-11.473,0.707c-51.001,0-92.343-41.347-92.343-92.348
			h22.941C768.608,506.645,803.894,545.517,849.482,551.166z"/>
		<path style="fill:#F1A34F;" d="M920.381,556.572H733.137l0,0c0-6.292,5.102-11.394,11.394-11.394h164.456
			C915.279,545.179,920.381,550.28,920.381,556.572L920.381,556.572z"/>
		<rect x="731.376" y="459.525" style="fill:#D86713;" width="189.829" height="2.834"/>
	</g>
	<g>
		<path style="fill:#FFF3E9;" d="M1552.941,530.795c-169.527,25.81-335.472,16.792-430.018,22.316v234.106h430.018V530.795z"/>
		<path style="fill:#A8D29F;" d="M1284.703,722.911c-1.648,24.568-12.494,43.728-24.943,57.896
			c-1.989,2.261-4.021,4.398-6.055,6.404c-17.23,16.969-35.159,24.952-35.159,24.952h-150.899
			c1.99-7.224,5.837-13.688,10.984-18.836c7.451-7.451,17.641-12.162,28.93-12.493V578.81c5.131,0.978,10.252,1.972,15.364,3.027
			c5.139,1.046,10.261,2.163,15.355,3.376c4.729,1.117,9.432,2.33,14.108,3.656c4.614,1.308,9.134,2.703,13.548,4.152
			c-9.492,7.285-19.167,16.245-27.656,24.707c-5.837,5.82-11.098,11.403-15.355,16.036c-6.622,7.232-10.783,12.18-10.783,12.18
			c3.664-1.667,7.259-3.227,10.783-4.694c5.278-2.198,10.392-4.17,15.355-5.95c39.461-14.124,69.019-15.651,88.03-13.985
			c15.049,9.894,27.508,21.088,37.018,33.415c-30.143-5.409-77.883,0.847-88.824,1.788c36.059-2.703,86.983,18.034,104.824,27.072
			C1283.752,695.935,1285.628,709.092,1284.703,722.911z"/>
		<g>
			<path style="fill:#F9DDBF;" d="M1608.067,823.557h-541.956c0-3.943,0.532-7.764,1.535-11.393
				c1.99-7.224,5.837-13.688,10.984-18.836c7.451-7.451,17.641-12.162,28.93-12.493c0.428-0.018,0.865-0.027,1.301-0.027h456.456
				c1.003,0,1.998,0.035,2.983,0.106C1590.523,782.44,1608.067,800.952,1608.067,823.557z"/>
			<path style="fill:#F9DDBF;" d="M1138.283,552.36c-11.072,0.451-21.348,1.042-30.727,1.839v234.925h30.727V552.36z"/>
			<path style="fill:#F9DDBF;" d="M1353.812,548.275c-10.386,0.383-20.635,0.7-30.726,0.964v239.885h30.726V548.275z"/>
			<path style="fill:#F9DDBF;" d="M1568.3,528.363c-10.253,1.689-20.5,3.247-30.727,4.682v256.08h30.727V528.363z"/>
		</g>
	</g>
	<g>
		<path style="fill:#E8C6A7;" d="M2048.932,459.227h0.758c3.137,0,5.733-11.357,5.733-25.203V319.672
			c-4.156,1.986-8.228,3.971-12.224,5.956v108.396C2043.199,447.869,2045.796,459.227,2048.932,459.227z"/>
		<path style="fill:#ED7D2B;" d="M2046.129,426.836c-44.385,0-80.365,38.047-80.365,84.979h160.73
			C2126.494,464.883,2090.514,426.836,2046.129,426.836z"/>
		<path style="fill:#F99746;" d="M2052.53,427.872c-2.309-0.504-4.664-0.769-7.058-0.769c-28.918,0-52.361,37.927-52.361,84.711
			h14.117C2007.229,468.903,2026.951,433.449,2052.53,427.872z"/>
	</g>
	<g>
		<rect x="720.777" y="556.572" style="fill:#CC9E7F;" width="267.086" height="765.44"/>
		<rect x="717.214" y="556.572" style="fill:#F9DDBF;" width="267.085" height="765.44"/>
		<rect x="792.256" y="666.337" style="fill:#E5BD9E;" width="192.043" height="10.817"/>
		<rect x="719.898" y="556.572" style="fill:#EFCDAE;" width="122.957" height="450.432"/>
		<rect x="792.256" y="831.262" style="fill:#E5BD9E;" width="192.043" height="10.816"/>
		<rect x="792.256" y="996.185" style="fill:#E5BD9E;" width="192.043" height="10.818"/>
		<g>
			<path style="fill:#CCDDED;" d="M864.618,647.184h-93.001c-4.983,0-9.061,4.077-9.061,9.062v1.03c0,4.983,4.077,9.062,9.061,9.062
				h93.001c4.983,0,9.061-4.078,9.061-9.062v-1.03C873.68,651.261,869.602,647.184,864.618,647.184z"/>
			<path style="fill:#E9F3FE;" d="M907.338,647.184h-93c-4.984,0-9.063,4.077-9.063,9.062v1.03c0,4.983,4.078,9.062,9.063,9.062h93
				c4.982,0,9.06-4.078,9.06-9.062v-1.03C916.398,651.261,912.32,647.184,907.338,647.184z"/>
		</g>
		<g>
			<path style="fill:#CCDDED;" d="M877.324,628.03h-93.002c-4.983,0-9.061,4.077-9.061,9.062v1.031c0,4.983,4.078,9.061,9.061,9.061
				h93.002c4.983,0,9.061-4.078,9.061-9.061v-1.031C886.385,632.107,882.308,628.03,877.324,628.03z"/>
			<path style="fill:#E9F3FE;" d="M920.043,628.03h-93c-4.984,0-9.061,4.077-9.061,9.062v1.031c0,4.983,4.076,9.061,9.061,9.061h93
				c4.984,0,9.061-4.078,9.061-9.061v-1.031C929.104,632.107,925.027,628.03,920.043,628.03z"/>
		</g>
		<g>
			<path style="fill:#ED7D2B;" d="M907.338,812.831h-93c-4.984,0-9.063,4.077-9.063,9.061v1.03c0,4.983,4.078,9.061,9.063,9.061h93
				c4.982,0,9.06-4.078,9.06-9.061v-1.03C916.398,816.908,912.32,812.831,907.338,812.831z"/>
			<path style="fill:#F99746;" d="M950.057,812.831h-93c-4.983,0-9.061,4.077-9.061,9.061v1.03c0,4.983,4.078,9.061,9.061,9.061h93
				c4.984,0,9.062-4.078,9.062-9.061v-1.03C959.118,816.908,955.041,812.831,950.057,812.831z"/>
		</g>
		<g>
			<path style="fill:#ED7D2B;" d="M920.043,793.678h-93c-4.984,0-9.061,4.078-9.061,9.061v1.031c0,4.984,4.076,9.062,9.061,9.062h93
				c4.984,0,9.061-4.077,9.061-9.062v-1.031C929.104,797.756,925.027,793.678,920.043,793.678z"/>
			<path style="fill:#F99746;" d="M962.763,793.678h-93c-4.984,0-9.062,4.078-9.062,9.061v1.031c0,4.984,4.077,9.062,9.062,9.062h93
				c4.983,0,9.062-4.077,9.062-9.062v-1.031C971.824,797.756,967.746,793.678,962.763,793.678z"/>
		</g>
		<g>
			<path style="fill:#CCDDED;" d="M907.338,975.787h-93c-4.984,0-9.063,4.077-9.063,9.061v1.031c0,4.983,4.078,9.061,9.063,9.061h93
				c4.982,0,9.06-4.077,9.06-9.061v-1.031C916.398,979.864,912.32,975.787,907.338,975.787z"/>
			<path style="fill:#E9F3FE;" d="M950.057,975.787h-93c-4.983,0-9.061,4.077-9.061,9.061v1.031c0,4.983,4.078,9.061,9.061,9.061h93
				c4.984,0,9.062-4.077,9.062-9.061v-1.031C959.118,979.864,955.041,975.787,950.057,975.787z"/>
		</g>
		<g>
			<path style="fill:#CCDDED;" d="M920.043,956.633h-93c-4.984,0-9.061,4.078-9.061,9.061v1.03c0,4.984,4.076,9.063,9.061,9.063h93
				c4.984,0,9.061-4.078,9.061-9.063v-1.03C929.104,960.711,925.027,956.633,920.043,956.633z"/>
			<path style="fill:#E9F3FE;" d="M962.763,956.633h-93c-4.984,0-9.062,4.078-9.062,9.061v1.03c0,4.984,4.077,9.063,9.062,9.063h93
				c4.983,0,9.062-4.078,9.062-9.063v-1.03C971.824,960.711,967.746,956.633,962.763,956.633z"/>
		</g>
		<rect x="647.542" y="556.572" style="fill:#CC9E7F;" width="144.714" height="765.44"/>
		<rect x="643.591" y="556.572" style="fill:#E5BD9E;" width="144.714" height="765.44"/>
		<rect x="788.305" y="556.572" style="fill:#CC9E7F;" width="199.559" height="3.738"/>
	</g>
	<g id="man_5_">
		<path style="fill:#2C3A64;" d="M486.221,1322.013c-4.371-3.743-1.752-24.714-1.752-24.714s22.522-18.018,25.619-4.223
			s21.396,19.988,31.813,21.678c6.948,1.126,9.259,4.881,10.029,7.259H486.221z"/>
		<path style="fill:#6BB7BF;" d="M483.704,1298.275c20.853,3.234,28.476-1.729,28.476-1.729
			c-0.27-20.536,6.062-66.845,14.745-120.014c11.444-70.107,26.971-152.143,36.778-202.718c5.644-29.09,9.399-47.768,9.399-47.768
			l-17.041-0.334l-84.993-1.683c0,0,6.36,94.065,4.621,140.521c-0.418,11.091-1.301,19.478-2.835,23.214
			C458.37,1122.964,483.704,1298.275,483.704,1298.275z"/>
		<path style="fill:#599DAD;" d="M475.69,1064.552c11.547,21.606,40.47,77.257,51.235,111.98
			c11.444-70.107,26.971-152.143,36.778-202.718c-0.483-19.114-2.771-35.82-7.642-48.102l-84.993-1.683
			C471.068,924.03,477.429,1018.096,475.69,1064.552z"/>
		<path style="fill:#2C3A64;" d="M557.807,1322.013c-4.371-3.743-1.752-24.714-1.752-24.714s22.521-18.018,25.619-4.223
			c3.097,13.795,21.395,19.988,31.813,21.678c6.948,1.126,9.259,4.881,10.029,7.259H557.807z"/>
		<path style="fill:#6BB7BF;" d="M610.047,924.003c0,0-0.166,1.562-0.482,4.472c-0.345,3.31-0.884,8.357-1.563,14.857
			c-7.15,68.592-30.336,299.042-24.729,351.904c0,0-7.131,5.597-28.189,4.305c0,0-38.144-177.97-30.066-206.771
			c5.616-20.025-16.752-161.44-16.752-161.44l46.4-3.337l32.083-2.315L610.047,924.003z"/>
		<path style="fill:#599DAD;" d="M609.565,928.475c-0.345,3.31-0.884,8.357-1.563,14.857c-32.549,4.593-85.094-6.983-85.094-6.983
			c10.914-3.97,21.633-6.666,31.758-8.357c11.668-1.953,22.563-2.575,32.083-2.315C595.749,925.937,603.521,926.986,609.565,928.475
			z"/>
		<path style="fill:#C18B67;" d="M722.529,656.854c2.619-1.005,4.742,0.303,4.742,2.922c0,0.314-0.035,0.633-0.093,0.953h28.339
			c0.478,0,0.867,0.389,0.867,0.867c0,0.477-0.39,0.867-0.867,0.867h-28.934c-0.828,1.7-2.326,3.211-4.055,3.874
			c-2.619,1.005-4.741-0.303-4.741-2.921C717.788,660.797,719.91,657.859,722.529,656.854z"/>
		<path style="fill:#FFB27D;" d="M729.451,690.607c0,0-0.078-19.617,3.021-25.323c3.1-5.707,10.198-12.84,14.241-10.558
			c4.043,2.283,5.282,21.398,4.043,24.823c-1.239,3.426-10.422,16.266-10.422,16.266L729.451,690.607z"/>
		<g>
			<path style="fill:#FFB27D;" d="M664.238,674.85c0,0,8.15-12.232,11.891-13.025c3.742-0.795,14.756,2.697,16.194,5.556
				c1.439,2.856-8.848,8.034-11.353,9.516c-2.505,1.482-2.967,8.183-10.093,6.524C663.75,681.762,664.238,674.85,664.238,674.85z"/>
			<g>
				<path style="fill:#F99746;" d="M674.459,646.56l9.14,63.885c0.233,1.635,1.765,2.787,3.405,2.553
					c1.635-0.233,2.781-1.769,2.548-3.404l-9.14-63.886c-0.234-1.641-1.765-2.788-3.399-2.554c-0.82,0.117-1.514,0.559-1.977,1.176
					C674.57,644.944,674.342,645.74,674.459,646.56z"/>
				<polygon style="fill:#2B478B;" points="690.799,640.72 671.482,642.664 658.851,646.891 659.559,651.842 672.813,651.963 
					691.887,648.32 				"/>
				<path style="fill:#2B478B;" d="M674.459,646.56l1.839,12.848c2.6,0.271,5.953-0.852,5.953-0.852l-1.839-12.849
					c-0.234-1.641-1.765-2.788-3.399-2.554c-0.82,0.117-1.514,0.559-1.977,1.176C674.57,644.944,674.342,645.74,674.459,646.56z"/>
				<path style="fill:#2B478B;" d="M680.783,690.768l2.815,19.678c0.233,1.635,1.765,2.787,3.405,2.553
					c1.635-0.233,2.781-1.769,2.548-3.404l-2.815-19.678C686.736,689.916,684.781,691.527,680.783,690.768z"/>
			</g>
			<path style="fill:#FFB27D;" d="M671.82,671.277c0,0,7.752-4.287,9.574-2.579c0.969,0.907-3.72,4.165-4.188,5.782
				c-0.469,1.618-1.491,5.896-3.891,5.512C670.919,679.607,669.078,672.238,671.82,671.277z"/>
		</g>
		<path style="fill:#ED7D2B;" d="M670.727,677.244c-4.499-4.69-7.554-2.928-7.554-2.928s-53.133,40.797-58.203,43.764
			c-5.071,2.966-74.179,4.969-74.179,4.969s-27.682-0.313-34.397,13.898c-5.836,12.35-1.718,22.981,4.307,30.793
			c7.18,9.311,19.387,13.182,30.672,9.889c25.332-7.392,75.725-22.484,85.152-28.251c20.985-12.835,58.881-64.087,58.881-64.087
			S674.262,680.928,670.727,677.244z"/>
		<path style="fill:#FFB27D;" d="M527.852,703.077c0,0,42.454,21.204,63.519,11.535c0,0-8.85-11.456-18.756-16.21
			c0.211-3.776,0.33-7.188,0.393-10.203c0.188-10.045-0.315-15.7-0.315-15.7l-18.309-13.32l-12.422-9.037
			c0.71,5.595,0.818,10.759,0.503,15.503C540.822,690.077,527.852,703.077,527.852,703.077z"/>
		<path style="fill:#ED975D;" d="M542.465,665.644c0,0,9.902,19.738,30.543,22.555c0.188-10.045-0.315-15.7-0.315-15.7
			l-18.309-13.32C546.379,662.191,542.465,665.644,542.465,665.644z"/>
		<path style="fill:#FFB27D;" d="M577.428,671.221c0,0-38.002,13.533-46.066-10.263c-8.063-23.796-18.399-38.075,5.523-47.724
			c23.924-9.646,31.739-2.172,36.363,5.115C577.871,625.639,587.106,667.086,577.428,671.221z"/>
		<path style="fill:#F99746;" d="M619.958,846.672c-0.028,0.65-0.057,1.292-0.085,1.934c-1.905,40.209-9.826,65.803-10.337,80.166
			v0.01c-19.431,6.582-120.051,6.777-138.468-2.528c0-31.163,8.219-64.446,11.109-119.279c0.047-0.726,0.084-1.46,0.121-2.203
			c0.111-2.324,0.205-4.667,0.26-7.02c0.959-38.368,13.527-70.852,22.388-89.185c4.956-10.236,15.247-16.8,26.617-17.152
			c36.87-1.125,54.321,6.666,82.546,18.909c4.983,2.167,7.011,30.122,7.252,65.302c0,0.492,0.01,0.985,0.01,1.487
			C621.482,799.1,620.915,823.773,619.958,846.672z"/>
		<path style="fill:#ED7D2B;" d="M578.764,752.763c0,0,4.287,61.824,41.195,93.908c0.957-22.898,1.524-47.572,1.413-69.56
			C610.346,762.367,595.796,751.75,578.764,752.763z"/>
		<path style="fill:#2B478B;" d="M575.742,599.783c0,0-2.246,22.7-9.065,28.898c-6.817,6.198-5.017,14.727-5.763,15.966
			c-0.745,1.24-7.801-2.405-9.044-0.316c-2.857,4.804,1.607,8.306,4.426,9.468c2.818,1.161-7.195,20.648-14.553,21.366
			c-12.719,1.24-32.363-33.928-34.022-44.236c-2.171-13.48,5.464-34.504,27.348-33.469
			C569.467,599.086,576.435,591.627,575.742,599.783z"/>
		<path style="fill:#6BB7BF;" d="M619.958,846.672c-0.028,0.65-0.057,1.292-0.085,1.934c-1.905,40.209-9.342,80.332-9.342,80.332
			c-0.381,10.887-139.463,11.065-139.463-2.685c0-31.163,8.219-64.446,11.109-119.279c0.047-0.726,0.084-1.46,0.121-2.203
			c6.916-2.361,11.277-19.83,11.277-19.83l58.291,6.535c0,0,6.405,35.942,28.736,32.847c6.787-0.94,11.379-5.523,14.494-11.436
			c7.094-13.546,6.405-34.102,6.405-34.102l18.854-3.002l1.004-0.158c0,0.492,0.01,0.985,0.01,1.487
			C621.482,799.1,620.915,823.773,619.958,846.672z"/>
		<g>
			<path style="fill:#6BB7BF;" d="M504.426,794.805l-9.165-1.654c0.053-0.24,5.313-24.47,12.628-49.108
				c15.09-50.829,20.718-51.618,23.675-52.628l4.124-0.09C523.982,695.327,512.377,758.029,504.426,794.805z"/>
		</g>
		<path style="fill:#599DAD;" d="M619.958,846.672c-10.878-9.465-18.929-21.504-24.86-33.785
			c7.094-13.546,6.405-34.102,6.405-34.102l18.854-3.002c0.344,0.437,0.679,0.883,1.014,1.329
			C621.482,799.1,620.915,823.773,619.958,846.672z"/>
		<path style="fill:#F99746;" d="M560.606,692.729c0,0,40.507,0.252,53.217,12.058c9.109,8.461,67.642,54.593,71.359,53.974
			c3.72-0.619,41.402-75.847,41.402-75.847s18.579,1.573,21.679,9.615c0,0-17.523,93.924-55.33,114.343
			c0,0-95.575-18.129-123.931-49.738C554.396,740.851,560.606,692.729,560.606,692.729z"/>
		<g>
			<path style="fill:#6BB7BF;" d="M544.052,795.347l-7.256-2.243c-4.867-1.012,5.708-23.823,13.409-47.829
				c15.882-49.508,24.579-50.489,27.529-51.498l3.977,0.458C569.981,698.246,552.595,759.55,544.052,795.347z"/>
		</g>
	</g>
	<g>
		<path style="fill:#ED7D2B;" d="M1433.736,1305.435h-73.293v-89.089c0-6.928-5.668-12.596-12.597-12.596h-125.958
			c-6.927,0-12.594,5.668-12.594,12.596v94.469c0,6.928,5.667,12.596,12.594,12.596h95.58c1.029,0.394,2.143,0.618,3.311,0.618
			h112.957c5.135,0,9.297-4.163,9.297-9.298C1443.033,1309.597,1438.871,1305.435,1433.736,1305.435z"/>
		<path style="fill:#F99746;" d="M1333.152,1203.75h-6.639c-5.223-3.119-33.365-19.15-60.414-19.346
			c-19.518-0.143-41.757,19.036-43.095,19.242c-0.233,0.037-0.374,0.071-0.447,0.104h-15.363c-6.928,0-12.595,5.668-12.595,12.596
			v94.469c0,6.928,5.667,12.596,12.595,12.596h125.958c6.928,0,12.596-5.668,12.596-12.596v-94.469
			C1345.748,1209.418,1340.08,1203.75,1333.152,1203.75z M1266.232,1191.227c9.434-0.289,30.375,8.73,38.741,12.523h-69.617
			C1239.832,1201.227,1257.621,1191.489,1266.232,1191.227z"/>
	</g>
	<g>
		<path style="fill:#2C3A64;" d="M679.727,1321.86h71.913c3.269,0,5.919-2.649,5.919-5.919l0,0c0-3.269-2.65-5.918-5.919-5.918
			h-71.913c-3.27,0-5.919,2.649-5.919,5.918l0,0C673.808,1319.211,676.457,1321.86,679.727,1321.86z"/>
		<path style="fill:#2C3A64;" d="M814.598,1321.467h-80.19c-4.409,0-8.019-3.608-8.019-8.02v-60.142c0-4.411,3.609-8.02,8.019-8.02
			h80.19c4.411,0,8.019,3.608,8.019,8.02v60.142C822.617,1317.858,819.009,1321.467,814.598,1321.467z"/>
		<path style="fill:#2B478B;" d="M747.44,1245.62c0,0,19.935-12.513,39.013-12.651c12.425-0.09,26.585,12.12,27.436,12.252
			c2.16,0.334-7.196,0.445-7.196,0.445s-14.024-8.16-20.324-8.354c-7.599-0.232-26.928,9.021-26.928,9.021L747.44,1245.62z"/>
		<path style="fill:#2B478B;" d="M823.933,1321.86h-80.148c-4.422,0-8.04-3.617-8.04-8.039v-60.495c0-4.422,3.618-8.04,8.04-8.04
			h80.148c4.422,0,8.04,3.618,8.04,8.04v60.495C831.973,1318.243,828.354,1321.86,823.933,1321.86z"/>
	</g>
	<path style="fill:#2E3552;" d="M3126.16,1330.965H258.295c-1.958,0-3.56-1.603-3.56-3.561v-1.984c0-1.958,1.602-3.56,3.56-3.56
		H3126.16c1.957,0,3.559,1.602,3.559,3.56v1.984C3129.719,1329.362,3128.117,1330.965,3126.16,1330.965z"/>
	<g>
		<path style="fill:#F9DDBF;" d="M2811.211,929.775l-12.867,3.415l2.674,17.527l13.994-0.683c4.062-0.62,8.227,0.141,11.762,2.233
			c3.631,2.149,8.018,3.074,12.521,2.301c9.457-1.626,16.221-10.54,15.219-20.083c-1.106-10.546-10.77-17.915-21.133-16.335
			c-4.331,0.661-8.08,2.778-10.823,5.779C2819.609,927.154,2815.529,929.117,2811.211,929.775z"/>
		<path style="fill:#FFE8D4;" d="M2832.671,922.795c8.781-1.34,16.969,4.91,17.91,13.846c0.487,4.641-1.194,9.105-4.228,12.319
			c1.507-2.708,2.226-5.876,1.879-9.124c-0.934-8.948-9.13-15.185-17.911-13.846c-3.669,0.56-6.854,2.354-9.178,4.891
			c-2.494,2.732-5.952,4.398-9.621,4.959l-8.179,2.175l-0.378-2.474l10.906-2.897c3.658-0.559,7.118-2.215,9.622-4.949
			C2825.816,925.148,2828.991,923.356,2832.671,922.795z"/>
		<path style="fill:#E8C6A7;" d="M2809.601,931.492l2.691,17.642c0.223,1.46-0.79,2.836-2.249,3.059l-17.642,2.69
			c-1.459,0.223-2.835-0.789-3.058-2.248l-2.691-17.642c-0.223-1.459,0.789-2.835,2.249-3.058l17.642-2.691
			C2808.002,929.021,2809.379,930.033,2809.601,931.492z"/>
	</g>
	<g>
		<path style="fill:#6BB7BF;" d="M2937.247,929.775l12.867,3.415l-2.675,17.527l-13.993-0.683c-4.062-0.62-8.228,0.141-11.762,2.233
			c-3.631,2.149-8.019,3.074-12.521,2.301c-9.457-1.626-16.221-10.54-15.219-20.083c1.107-10.546,10.77-17.915,21.133-16.335
			c4.331,0.661,8.08,2.778,10.823,5.779C2928.849,927.154,2932.929,929.117,2937.247,929.775z"/>
		<path style="fill:#BDF1F4;" d="M2915.787,922.795c-8.781-1.34-16.969,4.91-17.91,13.846c-0.486,4.641,1.195,9.105,4.227,12.319
			c-1.506-2.708-2.225-5.876-1.877-9.124c0.933-8.948,9.129-15.185,17.91-13.846c3.669,0.56,6.854,2.354,9.178,4.891
			c2.494,2.732,5.952,4.398,9.621,4.959l8.179,2.175l0.378-2.474l-10.906-2.897c-3.658-0.559-7.118-2.215-9.623-4.949
			C2922.643,925.148,2919.467,923.356,2915.787,922.795z"/>
		<path style="fill:#F9DDBF;" d="M2938.857,931.492l-2.691,17.642c-0.223,1.46,0.789,2.836,2.249,3.059l17.642,2.69
			c1.459,0.223,2.836-0.789,3.059-2.248l2.69-17.642c0.223-1.459-0.79-2.835-2.249-3.058l-17.642-2.691
			C2940.456,929.021,2939.08,930.033,2938.857,931.492z"/>
	</g>
	<polygon style="opacity:0.5;fill:#E8C6A7;" points="2208.535,1181.534 2195.809,1321.842 2225.763,1321.842 	"/>
	<g>
		<path style="fill:#2C3A64;" d="M2035.857,660.683c-0.495-1.553-6.425-18.122-32.425-11.823c0,0,13.085-2.021,16.826,2.936
			c0,0-10.542-4.474-16.947-0.303s-7.098,17.625-6.011,21.683c1.088,4.059,8.627,16.015,13.394,15.881
			c1.806-0.05,3.719-0.705,5.4-1.499c-0.67,2.183-1.263,4.55-1.737,7.14c-4.393,23.962,11.956,41.621,20.02,36.917
			c5.173-3.017,9.406,6.064,9.406,6.064l41.968-59.003C2085.751,678.674,2054.35,643.028,2035.857,660.683z"/>
		<path style="fill:#2B478B;" d="M2140.508,1301.947l-11.953,4.451c0,0-51.92-72.011-58.313-135.366
			c-1.142-11.312-0.761-22.271,1.707-32.391c0,0-0.506-2.899-1.395-8.022c-0.41-2.392-0.917-5.27-1.494-8.568
			c-1.688-9.672-4.01-22.905-6.664-37.974c-6.109-34.674-14.025-78.999-20.173-111.586l3.221-1.034l34.85-11.242l7.202-22.876
			l25.949-6.831c0,0,5.798,11.34,10.979,64.908c0.956,7.026,1.825,14.775,2.479,23.178c2.02,25.647,2.166,57.462-2.469,93.834
			c-1.191,9.311-2.694,18.923-4.559,28.8c-1.365,7.241-1.57,17.108-0.995,28.438
			C2121.497,1221.457,2140.508,1301.947,2140.508,1301.947z"/>
		<path style="fill:#233862;" d="M2126.904,1018.594l-56.35,112.025c-0.41-2.392-0.917-5.27-1.494-8.568
			c-1.688-9.672-4.01-22.905-6.664-37.974c-6.109-34.674-14.025-78.999-20.173-111.586l3.221-1.034l34.85-11.242l7.202-22.876
			l25.949-6.831c0,0,5.798,11.34,10.979,64.908C2125.381,1002.442,2126.25,1010.191,2126.904,1018.594z"/>
		<path style="fill:#2B478B;" d="M2102.114,944.885l-1.304-11.188c-21.855,5.805-80.247-16.221-80.247-16.221
			s-21.171,18.611-18.392,63.221c1.356,21.774,3.835,114.299,6.424,141.679c0.935,9.923,1.754,16.984,2.089,19.806
			c0.007,0.013,0.007,0.02,0.007,0.026c0.104,0.86-0.197,1.674-0.635,2.425c-3.811,6.468-6.967,13.201-9.555,20.092
			c-25.405,67.701,3.913,151.076,3.913,151.076l7.608-3.067c0,0,16.685-92.785,30.241-133.776c2.302-6.951,4.507-12.416,6.528-15.68
			c5.895-9.514,11.365-25.057,16.33-43.545c9.384-34.953,16.938-80.423,21.963-115.52
			C2087.779,1004.245,2102.114,944.885,2102.114,944.885z"/>
		<path style="fill:#ED985F;" d="M2255.229,862.174c-3.343-1.885-18.944,3.124-18.944,3.124s-9.686-1.055-21.716-2.771
			c-16.747-2.467-37.96-6.13-43.319-9.518c-12.438-7.894-33.721-40.088-50.951-60.45c-1.567-1.91-3.108-3.734-4.626-5.472
			c-0.136-0.15-0.296-0.387-0.519-0.513c-0.79-0.813-1.469-1.563-2.123-2.225c-0.025-0.088-0.137-0.15-0.248-0.213
			c-3.072-3.276-6.014-5.741-8.491-7.211l-0.024-0.088c-3.057-1.869-5.613-2.285-7.462-0.83c0,0-3.513,3.234-6.31,9.367
			c-0.401,0.582-0.604,1.201-0.807,1.822c-1.628,3.928-2.877,8.879-2.852,14.694c0.01,4.411,0.713,9.286,2.506,14.703
			c2.851,8.877,10.43,18.878,19.95,28.433c0.407,0.449,0.814,0.9,1.309,1.324c18.153,17.946,42.843,34.07,56.202,37.856
			c8.78,2.528,28.38,0.067,44.676-2.789c10.859-1.807,20.329-3.885,24.236-4.692c2.165,1.368,18.03,11.781,21.443,6.509
			C2260.936,877.581,2258.573,864.059,2255.229,862.174z"/>
		<path style="fill:#FFB27D;" d="M2098.918,801.347c-5.754,4.907-13.152,9.22-22.66,12.44
			c-35.638,12.077-52.703-17.357-60.07-37.998c4.69-3.344,9.309-4.44,11.98-5.033c2.605-0.574,5.357-1.059,7.643-1.402
			c3.782-3.547,8.603-16.999,7.958-37.072l1.762,0.289l29.539,4.993c0,0-0.403,9.271-0.185,17.974
			c0.177,6.811,0.744,13.278,2.184,14.73c2.292,0.263,3.67,0.445,3.67,0.445s0.004,0.01,0.018,0.026
			C2081.205,771.332,2090.918,784.216,2098.918,801.347z"/>
		<path style="fill:#ED985F;" d="M2075.071,737.568c0,0-0.409,9.265-0.184,17.974c-16.452-0.001-25.563-14.754-29.357-22.966
			L2075.071,737.568z"/>
		<path style="fill:#FFB27D;" d="M2080.793,745.661c0,0-38.877,1.734-39.584-22.493c-0.707-24.227-6.201-40.319,18.591-42.451
			c24.792-2.131,29.886,6.973,32.089,15.002C2094.092,703.748,2090.887,744.586,2080.793,745.661z"/>
		<path style="fill:#2C3A64;" d="M2090.354,682.28c-6.217-7.119-10.715-5.392-13.199-3.13c-21.588-11.09-34.801,6.575-34.801,6.575
			c-2.113,17.456-14.369,27.767-14.369,27.767s7.212,4.18,23.438-0.48c4.956-1.425,9.313-5.098,12.98-9.508
			c-6.302,11.273-15.08,19.512-15.08,19.512c19.269-9.571,26.346-36.943,27.045-39.836c2.435,2.065,7.245,6.565,8.799,11.065
			c2.112,6.116,3.342,18.791,7.031,18.256C2092.197,712.501,2099.678,692.956,2090.354,682.28z"/>
		<path style="fill:#F99746;" d="M2114.292,824.972c0.126-0.816,0.231-1.604,0.302-2.405c0.764-8.609-1.966-16.483-4.959-23.378
			c4.146-5.12,10.742-6.692,10.742-6.692c-1.898-2.815-10.379-11.373-13.925-14.908c-1.134-1.131-2.493-1.991-4.001-2.527
			c-3.332-1.185-10.244-3.172-21.713-4.348c0,0,0.004,0.01,0.018,0.025c0.496,0.834,13.743,22.864,12.758,28.631
			c-1,5.86-51.923,2.04-55.516-1.071c-2.877-2.5-7.451-18.682-9.153-25.005c-0.429-1.573-0.677-2.537-0.677-2.537
			s-17.922,2.477-26.537,9.113c0,0,6.158,7.26,10.131,16.051c0.375,0.837,0.731,1.68,1.061,2.53c0.704,1.8,1.277,3.636,1.677,5.47
			c0.525,2.427-0.116,4.886-1.504,7.502c-1.257,2.397-3.16,4.943-5.347,7.711c-1.434,1.799-2.98,3.699-4.562,5.73v0.002
			c2.848,10.86,8.569,28.432,11.859,47.967c0.835,4.955,0.521,10.007-0.859,14.789c-0.544,1.904-1.26,3.766-2.138,5.56
			c-7.008,14.285-18.733,42.135-10.799,55.221c4.025,13.305,121.839-0.6,115.322-14.627
			C2116.473,933.775,2110.632,847.269,2114.292,824.972z"/>
		<path style="fill:#ED7D2B;" d="M2078.408,914.776c-22.335,5.977-47.643-11.889-64.321-27.155
			c1.381-4.782,1.694-9.834,0.859-14.789c-3.29-19.535-9.012-37.105-11.859-47.967v-0.002c1.581-2.031,3.128-3.932,4.562-5.73
			c2.187-2.768,4.09-5.314,5.347-7.711C2039.829,837.159,2108.691,906.675,2078.408,914.776z"/>
		<path style="fill:#233862;" d="M2048.648,1322.016h-60.206c0,0-1.442-9.176,1.702-16.137c3.014-6.681,7.732-9.717,6.604-17.799
			c3.825,3.939,10.061,8.351,18.764,7.18c1.066,1.729,6.885,10.981,10.446,13.541
			C2029.893,1311.629,2047.438,1310.621,2048.648,1322.016z"/>
		<path style="fill:#233862;" d="M2177.917,1322.016h-60.206c0,0-2.25-9.602,1.703-16.137c3.498-5.781,2.157-9.075-0.434-13.859
			c2.727,1.117,6.255,2.133,10.14,1.91c2.999-0.172,6.173-1.533,8.954-3.148c2.591,2.954,13.686,15.528,17.153,18.02
			C2159.162,1311.629,2176.706,1310.621,2177.917,1322.016z"/>
		<path style="fill:#FFFFFF;" d="M2084.998,730.596c0,0,0.115,2.838-6.625,4.275c0,0-5.658,1.209-6.306-1.767
			C2072.067,733.104,2076.881,729.518,2084.998,730.596z"/>
		<g>
			<polygon style="fill:#BC5D1D;" points="2228.875,947.011 2171.564,947.011 2208.13,823.51 2265.44,823.51 			"/>
			<polygon style="fill:#ED7D2B;" points="2231.13,947.011 2173.819,947.011 2210.383,823.51 2267.693,823.51 			"/>
			<polygon style="fill:#E8C6A7;" points="2230.814,943.324 2177.398,943.324 2211.801,826.098 2265.218,826.098 			"/>
		</g>
		<path style="fill:#FFB27D;" d="M2207.111,893.763c-0.974-2.877-4.788-1.669-7.718-0.866c-4.806,1.316-12.468,3.099-17.314,2.642
			c0,0,13.929-4.101,9.724-7.69c-0.766-0.654-7.547,1.894-15.309,4.058c-3.182,0.889-9.832,7.443-9.37,7.533
			c-5.374,1.748-8.062,1.935-12.999,1.266c-4.418-1.022-9.74-2.262-15.397-3.689c-13.61-3.34-29.378-7.677-40.485-11.811
			c-6.384-2.352-11.34-4.631-13.415-6.683c-3.224-3.14-7.315-8.384-12.059-14.949c-2.463-3.446-5.11-7.216-7.833-11.246
			c-4.654-6.59-9.48-13.79-14.393-20.966c-8.914-13.104-18.201-26.197-26.303-36.053c-5.192-6.158-9.959-11.122-13.916-13.867
			c-3.156-2.22-5.835-3.068-7.916-2.112c-0.324,0.183-0.562,0.344-0.798,0.504c0,0-11.575,6.985-4.702,32.302
			c0.303,1.42,0.802,2.877,1.327,4.42c1.413,4.395,3.792,9.556,6.751,15.116c4.862,9.351,11.556,19.88,19.169,30.341
			c2.095,2.797,4.215,5.681,6.421,8.54c15.924,20.727,34.111,39.134,46.371,43.695c0.533,0.228,0.955,0.392,1.464,0.532
			c5.022,1.511,12.051,2.461,19.987,2.971c11.255,0.618,24.328,0.352,35.949-0.071l0.086-0.024c6.75-0.38,12.954-0.701,18.101-1.104
			c0,0,0.157-0.005,0.455-0.019c0.497-0.023,1.386-0.073,2.59-0.175h0.001c4.935-0.154,15.111-0.363,25.059,0.619
			c13.934,1.466,21.441-7.283,24.411-12.819C2206.932,900.648,2208,896.389,2207.111,893.763z"/>
		<g>
			<path style="fill:#BC5D1D;" d="M2231.211,853.218L2231.211,853.218c-6.392-0.001-10.768-22.789-10.986-23.751l0,0
				c1.448,6.368,6.243,22.895,10.985,22.896c9.042,0.002,22.06-22.372,22.183-22.602l0,0
				C2252.881,830.72,2240.764,853.218,2231.211,853.218z"/>
		</g>
		<path style="fill:#F99746;" d="M2024.219,795.354c-18.064,0.054-27.352,16.761-27.352,16.761
			c-6.825-25.286,4.77-32.243,4.77-32.243C2006.105,776.37,2014.4,783.486,2024.219,795.354z"/>
	</g>
</g>
</svg>
