<?xml version="1.0" encoding="utf-8"?>
<!-- Generator: Adobe Illustrator 27.5.0, SVG Export Plug-In . SVG Version: 6.00 Build 0)  -->
<svg version="1.1" id="_x3C_Layer_x3E_" xmlns="http://www.w3.org/2000/svg" xmlns:xlink="http://www.w3.org/1999/xlink" x="0px"
	 y="0px" viewBox="0 0 3116 1640" style="enable-background:new 0 0 3116 1640;" xml:space="preserve">
<rect style="fill:#FFFFFF;" width="3116" height="1640"/>
<g>
	<g>
		<path style="fill:#FCECDB;" d="M317.671,1408.78c0,0-152.837-377.901,70.754-603.547
			c288.394-291.043,661.072-47.767,800.912-54.859c139.84-7.093,147.716-286.349,565.54-319.704
			c323.064-25.79,853.626-27.823,740.436,428.428c-86.057,346.881,392.743,167.206,299.518,550.415L317.671,1408.78z"/>
		<g>
			<g>
				<path style="fill:#599DAD;" d="M786.243,1178.245c0,0-36.364-42.424-2.243-69.37c0,0,24.924-15.09,45.247-13.864
					c0,0-28.797,48.289-19.481,53.092c9.316,4.803,28.209-56.12,28.209-56.12s56.719-5.501,74.964,3.271
					c0,0-48.486,39.678-38.274,42.04c10.212,2.362,62.584-36.583,62.584-36.583s52.789,8.983,49.975,41.187
					c-2.816,32.202-21.005,42.146-28.999,41.29c-7.995-0.856-54.76-18.707-55.778-12.158c-1.018,6.551,27.131,27.958,46.844,28.96
					c0,0-37.217,41.044-61.951,29.198c-24.735-11.845-26.848-30.622-42.266-37.665c-15.418-7.042-28.58-7.024-22.215,0.158
					c6.366,7.183,34.271,14.163,43.088,29.76s16.729,26.116-8.862,22.266c-25.59-3.851-67.189-22.575-69.015-44.019
					C786.243,1178.245,786.243,1178.245,786.243,1178.245z"/>
				<g>
					<path style="fill:#599DAD;" d="M961.284,1142.766c0,0-143.378-5.525-175.041,35.479c0,0-7.003,20.973-28.551,40.069
						l-3.358,9.154c0,0,24.845-26.196,33.734-27.781C788.068,1199.688,774.166,1148.887,961.284,1142.766z"/>
					<path style="fill:#599DAD;" d="M757.692,1218.314c0,0-30.775,22.761-32.913,63.427l5.586,0.5c0,0,9.829-42.049,27.594-58.492
						C775.725,1207.305,757.692,1218.314,757.692,1218.314z"/>
				</g>
			</g>
			<g>
				<path style="fill:#6BB7BF;" d="M659.102,1124.893c0,0,57.845-32.394,30.851-76.356c0,0-21.597-26.994-44.734-33.936
					c0,0,12.341,65.559,0,67.101c-12.341,1.543-8.484-74.042-8.484-74.042s-60.931-29.309-84.841-26.995
					c0,0,37.794,64.016,25.453,62.474s-54.762-66.33-54.762-66.33s-62.473-11.569-72.499,25.452
					c-10.027,37.021,6.17,55.532,15.425,57.846c9.256,2.314,68.644,1.543,67.102,9.256c-1.542,7.713-41.648,20.053-64.016,13.111
					c0,0,24.681,60.931,57.074,57.846c32.394-3.085,42.42-23.138,62.474-24.681c20.053-1.543,34.707,3.856,24.681,9.255
					c-10.026,5.399-43.963,1.77-60.159,15.539c-16.197,13.77-29.309,22.254,0.77,28.424c30.08,6.171,84.069,2.314,94.867-20.824
					C659.102,1124.893,659.102,1124.893,659.102,1124.893z"/>
				<g>
					<path style="fill:#6BB7BF;" d="M478.623,1013.829c0,0,161.969,52.447,180.479,111.063c0,0-0.772,26.224,15.425,56.304v11.569
						c0,0-16.968-39.336-26.224-44.734C648.304,1148.031,684.555,1097.127,478.623,1013.829z"/>
					<path style="fill:#6BB7BF;" d="M674.527,1181.196c0,0,24.978,37.931,10.738,84.103l-6.426-1.727c0,0,6.237-50.854-6.831-76.433
						C658.94,1161.563,674.527,1181.196,674.527,1181.196z"/>
				</g>
			</g>
			<g>
				<path style="fill:#86D1CD;" d="M751.13,1080.218c0,0-76.251-42.701-40.667-100.651c0,0,28.467-35.585,58.968-44.734
					c0,0-16.267,86.418,0,88.451c16.267,2.034,11.183-97.602,11.183-97.602s80.318-38.635,111.836-35.584
					c0,0-49.817,84.385-33.551,82.352c16.268-2.033,72.186-87.436,72.186-87.436s82.352-15.25,95.568,33.551
					c13.217,48.801-8.134,73.201-20.335,76.252c-12.199,3.05-90.484,2.033-88.45,12.199c2.033,10.168,54.9,26.435,84.385,17.284
					c0,0-32.535,80.318-75.235,76.251c-42.701-4.065-55.918-30.5-82.352-32.533s-45.751,5.084-32.533,12.2
					c13.216,7.116,57.95,2.332,79.301,20.483c21.351,18.15,38.634,29.334-1.017,37.468s-110.818,3.05-125.053-27.45
					C751.13,1080.218,751.13,1080.218,751.13,1080.218z"/>
				<g>
					<path style="fill:#6BB7BF;" d="M989.034,933.815c0,0-213.504,69.135-237.904,146.403c0,0,1.017,34.567-20.334,74.218v15.25
						c0,0,22.368-51.851,34.567-58.967C765.363,1110.719,717.579,1043.617,989.034,933.815z"/>
					<path style="fill:#6BB7BF;" d="M730.796,1154.436c0,0-32.927,50-14.154,110.863l8.471-2.275c0,0-8.223-67.037,9.004-100.754
						C751.343,1128.554,730.796,1154.436,730.796,1154.436z"/>
				</g>
			</g>
			<path style="fill:#EFCBAB;" d="M748.56,1397.284c82.492,0,149.365-66.873,149.365-149.364H599.195
				C599.195,1330.411,666.069,1397.284,748.56,1397.284z"/>
			<path style="fill:#FFEBDC;" d="M785.315,1396.142c-6.074,0.759-12.27,1.144-18.557,1.144
				c-82.49,0-149.357-66.877-149.357-149.367h37.106C654.507,1324.129,711.579,1387.003,785.315,1396.142z"/>
			<path style="fill:#EFCBAB;" d="M899.988,1404.885H597.133l0,0c0-10.178,8.251-18.428,18.428-18.428h266
				C891.737,1386.457,899.988,1394.707,899.988,1404.885L899.988,1404.885z"/>
			<rect x="594.284" y="1247.918" style="fill:#EFCDAF;" width="307.038" height="4.582"/>
		</g>
		<g>
			<path style="fill:#163560;" d="M2226.114,1354.324c0,0,3.096,49.927,12.755,50.643c1.284,0.096,48.992,0.096,48.992,0.096
				l60.898-0.354c0,0-0.398-14.674-18.199-17.775c-17.801-3.103-47.598-15.613-58.381-39.141
				C2260.835,1323.041,2226.114,1354.324,2226.114,1354.324z"/>
			<path style="fill:#E49963;" d="M2193.612,763.87c0,0,28.75,16.347,36.798,16.346c8.048-0.003,39.642-6.107,48.447-1.607
				c8.807,4.5,24.747,22.604,27.738,28.519c5.377,10.635-21.651,5.938-34.427-3.121c-1.854-1.315-4.163-1.802-6.382-1.317
				c-6.617,1.443-20.365,3.941-27.002,1.485c-8.926-3.306-55.941-6.973-55.941-6.973L2193.612,763.87z"/>
			<path style="fill:#ED7D2B;" d="M1974.874,541.213c0,0,29.804,211.826,79.153,230.798c24.352,9.362,131.971,30.583,163.805,32.715
				c0,0,7.799-6.326,5.898-32.077c0,0-112.752-41.394-128.77-63.906c-23.84-33.504,14.798-136.871-15.114-168.338
				C2049.933,508.939,1999.551,495.414,1974.874,541.213z"/>
			<path style="fill:#599DAD;" d="M1984.917,987.488c8.694,14.748,18.75,28.568,29.114,41.655
				c32.033,40.438,66.901,73.78,72.977,105.297c1.206,6.281,3.124,13.046,5.631,20.173c2.537,7.22,5.672,14.81,9.292,22.658
				c13.593,29.526,33.919,62.611,54.216,92.685c35.086,51.988,68.077,95.369,68.077,95.369l60.504-2.579
				c-2.423-6.064-28.812-77.847-64.113-165.57c-14.335-35.611-29.578-73.491-44.284-110.021c-1.96-4.879-3.92-9.736-5.859-14.552
				c-4.495-11.18-8.92-22.185-13.241-32.899c-33.146-82.371-59.548-147.963-59.548-147.963s-132.482-50.185-146.24-17.666
				C1940.097,900.89,1949.337,927.156,1984.917,987.488z"/>
			<path style="fill:#163560;" d="M2086.014,1211.692c0,0-42.084,27.042-38,35.825c0.543,1.168,23.8,42.821,23.8,42.821
				l29.996,53.001c0,0,12.618-7.501,6.649-24.557c-5.971-17.055-9.571-49.169,5.714-70.054
				C2130.254,1226.758,2086.014,1211.692,2086.014,1211.692z"/>
			<path style="fill:#6BB7BF;" d="M2106.604,1259.224c0,0-26.301-23.197-30.938-40.214c0,0,108.374-129.848,131.882-158.952
				c1.078-1.333,0.805-2.802-0.62-4.409c-17.747-20.012-214.933-60.692-240.704-100.789c-8.883-13.813-13.914-26.932-16.652-38.39
				c-5.844-24.466-1.224-41.364-1.224-41.364l196.93-5.696c0,0,163.964,102.094,182.533,171.705
				C2346.369,1110.726,2106.604,1259.224,2106.604,1259.224z"/>
			<path style="fill:#5AA9AD;" d="M2206.927,1055.648c-17.747-20.012-214.933-60.692-240.704-100.789
				c-8.883-13.813-13.914-26.932-16.652-38.39v-24.923l83.698-13.164c0,0,23.735,73.035,94.032,100.424
				C2193.143,1004.46,2205.612,1049.979,2206.927,1055.648z"/>
			<path style="fill:#E49963;" d="M2091.39,527.862c-39.84,10.298-105.882-26.611-105.882-26.611s25.645-17.237,35.147-55.097
				c0.484-1.908,0.913-3.862,1.306-5.87c4.173-0.886,12.041-2.557,20.459-4.337l30.428,27.262c0,0-0.693,11.319-4.5,30.774
				c-0.658,3.397-1.415,7.038-2.292,10.919C2082.389,515.018,2091.39,527.862,2091.39,527.862z"/>
			<path style="fill:#F99746;" d="M1943.326,692.996c5.705,76.748-1.8,193.475,4.673,213.69c5.587,17.44,69.243,7.072,94.651,1.249
				c9.404-2.154,20.795-5.233,32.561-8.873c32.816-10.162,68.574-24.672,72.41-35.443c0.148-0.423,0.275-0.836,0.354-1.239
				c0.354-1.564,0.275-3.029-0.069-4.515c-1.278-5.49-6.206-11.431-6.787-25.025c-0.649-15.179-0.551-33.053-1.122-52.274
				c-0.029-2.164-0.058-4.525-0.294-6.679l-0.01-0.788c-0.011-0.413-0.021-0.815-0.029-1.228
				c-0.552-21.436-1.673-43.972-2.972-66.321c-0.826-14.037-1.78-27.938-2.882-41.257c-2.863-34.381-6.719-64.954-11.824-84.284
				c-8.342-31.508-26.737-52.058-43.48-67.117l-12.109-10.389c-13.516,2.951-29.49,0.994-43.941-5.853
				c-15.641-7.427-21.042-12.749-23.766-10.742C1962.567,513.775,1936.588,599.171,1943.326,692.996z"/>
			<path style="fill:#ED7D2B;" d="M2075.211,899.063c32.816-10.162,68.574-24.672,72.41-35.443c0.148-0.423,0.275-0.836,0.354-1.239
				c-0.021-1.505-0.039-3.011-0.069-4.515c-1.278-5.49-6.206-11.431-6.787-25.025c-0.649-15.179-0.551-33.053-1.122-52.274
				c-0.029-2.164-0.058-4.525-0.294-6.679l-0.01-0.788c-0.011-0.413-0.021-0.815-0.029-1.228l-132.668-169.022
				C2006.996,602.849,1917.818,788.552,2075.211,899.063z"/>
			<path style="fill:#D68D5D;" d="M2072.848,463.209c0,0-0.693,11.319-4.5,30.774c-29.717-9.603-43.191-36.444-47.692-47.829
				c0.484-1.908,0.913-3.862,1.306-5.87c4.173-0.886,12.041-2.557,20.459-4.337L2072.848,463.209z"/>
			<path style="fill:#E49963;" d="M2076.846,480.364c0,0-64.801-10.814-57.445-51.065c7.355-40.251,3.946-68.756,45.631-63.553
				s46.895,22.027,47.707,36.06C2113.551,415.838,2093.892,482.141,2076.846,480.364z"/>
			<g>
				
					<rect x="2356.082" y="672.205" transform="matrix(-0.9511 -0.309 0.309 -0.9511 4370.6909 2193.9744)" style="fill:#4A75CB;" width="6.008" height="157.335"/>
				
					<rect x="2172.655" y="814.98" transform="matrix(-0.9998 -0.0214 0.0214 -0.9998 4492.3906 1687.8042)" style="fill:#4A75CB;" width="165.103" height="9.877"/>
			</g>
			<path style="fill:#E49963;" d="M2175.873,830.976c0,0,53.037,13.983,72.927,12.517c19.889-1.468,36.431-10.927,38.933-15.865
				c2.503-4.939,7.762-13.697-5.779-12.08c-13.541,1.617-32.027,4.495-32.602,1.893c-0.572-2.602,11.039-2.354,11.039-2.354
				s3.51-5.104-0.909-5.289c-4.421-0.184-17.312-3.683-22.1-1.289c-4.788,2.394-9.208,11.234-12.706,10.866
				c-3.5-0.368-44.383-18.417-44.383-18.417L2175.873,830.976z"/>
			<path style="fill:#F99746;" d="M1988.025,549.904c0,0,6.27,213.82,53.229,238.119c23.17,11.989,127.793,44.945,159.198,50.574
				c0,0,8.448-5.429,9.398-31.233c0,0-107.501-53.572-120.938-77.713c-20.001-35.928,29.798-134.406,3.535-168.978
				C2066.187,526.102,2017.602,507.105,1988.025,549.904z"/>
			<path style="fill:#2B478B;" d="M2020.655,446.154c0,0-0.742-13.81,7.778-21.722c0,0-2.967-13.846,2.511-16.129
				c5.478-2.282,6.618,9.358,9.129,7.532c2.511-1.825,13.694-10.499,18.487-23.28c4.793-12.78,48.658,2.699,53.771,5.001
				c5.113,2.303,21.546-6.142,24.741-12.989c0,0-9.129-7.304-13.238-12.78c-4.107-5.479-32.865-42.452-73.034-31.953
				c-40.17,10.499-45.646,29.67-43.365,46.103C2009.719,402.37,2004.204,440.641,2020.655,446.154z"/>
		</g>
		<g>
			<path style="fill:#233862;" d="M802.521,528.238l34.573-3.302c2.772-0.265,5.394,1.311,6.464,3.884l26.103,62.83
				c1.638,3.943-1.007,8.346-5.258,8.753l-35.975,3.436c-2.82,0.268-5.477-1.363-6.512-3.999l-24.701-62.966
				C795.676,532.949,798.322,528.641,802.521,528.238z"/>
			<path style="fill:#2B478B;" d="M1240.906,1358.413l-18.346,9.737c0,0-99.195-105.184-123.045-206.118
				c-4.252-18.021-5.976-35.797-4.152-52.659c0,0-1.441-4.57-3.966-12.654c-0.11-0.354-0.224-0.716-0.336-1.078
				c-1.104-3.547-2.429-7.719-3.9-12.441c-4.788-15.253-11.369-36.125-18.865-59.887c-17.266-54.684-56.755-178.01-73.63-229.309
				l121.281-43.88c0,0,13.775,31.414,33.571,116.796c3.048,11.146,6.104,23.468,8.956,36.895
				c3.234,15.209,6.252,31.838,8.765,49.803c4.254,30.435,7.095,64.676,7.271,102.232c0.067,15.278-0.307,31.12-1.213,47.467
				c-0.663,11.985,1.117,27.957,4.458,46.127C1193.037,1232.512,1240.906,1358.413,1240.906,1358.413z"/>
			<path style="fill:#233862;" d="M1307.312,1404.885h-98.054c0,0-3.665-15.639,2.772-26.281c5.698-9.416,3.514-14.78-0.706-22.57
				c4.441,1.818,10.188,3.473,16.515,3.11c4.886-0.281,10.052-2.498,14.582-5.129c4.22,4.812,22.29,25.291,27.937,29.349
				C1276.766,1387.967,1305.338,1386.327,1307.312,1404.885z"/>
			<path style="fill:#233862;" d="M1167.239,953.617l-76.178,142.023c-1.104-3.547-2.429-7.719-3.9-12.441
				c-4.788-15.253-11.369-36.125-18.865-59.887c-17.266-54.684-56.755-178.01-73.63-229.309l121.281-43.88
				c0,0,13.775,31.414,33.571,116.796c3.048,11.146,6.104,23.468,8.956,36.895C1161.709,919.023,1164.727,935.652,1167.239,953.617z
				"/>
			<path style="fill:#FFB27D;" d="M837.036,640.418c-0.608,0.524-29.671-29.186-45.19-45.647l15.545-9.464l84.878,53.285
				L837.036,640.418z"/>
			<path style="fill:#233862;" d="M992.691,1374.192c0,0-2.282,16.651,4.108,30.692h40.626c0,0,0.305-12.129-10.043-27.345
				C1017.037,1362.324,992.691,1374.192,992.691,1374.192z"/>
			<path style="fill:#2C3A64;" d="M1072.751,290.375c0.549-2.598,7.474-30.409,50.629-24.415c0,0-21.534-1.157-26.792,7.483
				c0,0,16.358-8.959,27.414-3.238c11.056,5.722,14.359,27.411,13.256,34.164c-1.104,6.753-11.385,27.351-19.13,27.907
				c-2.935,0.211-6.141-0.54-8.995-1.554c1.439,3.428,2.783,7.167,3.973,11.289c11.002,38.117-12.627,69.387-26.459,63.07
				c-8.87-4.051-14.26,11.352-14.26,11.352l-77.574-88.816C994.813,327.617,1039.922,264.763,1072.751,290.375z"/>
			<path style="fill:#FFB27D;" d="M993.358,528.549c10.12,7.021,22.809,12.812,38.738,16.487
				c59.711,13.796,82.594-36.671,91.188-71.313c-8.143-4.659-15.805-5.687-20.229-6.215c-4.316-0.509-8.855-0.847-12.614-1.033
				c-6.705-5.136-16.695-26.154-18.904-58.788l-2.81,0.754l-47.06,12.88c0,0,2.156,14.959,3.212,29.099
				c0.816,11.063,0.945,21.637-1.149,24.224c-3.673,0.797-5.877,1.317-5.877,1.317s-0.003,0.016-0.023,0.044
				C1017.198,477.04,1003.545,499.492,993.358,528.549z"/>
			<path style="fill:#ED985F;" d="M1021.666,421.328c0,0,2.163,14.947,3.211,29.099c26.661-2.67,39.034-28.053,43.852-41.977
				L1021.666,421.328z"/>
			<path style="fill:#FFB27D;" d="M1013.705,435.37c0,0,63.282-3.491,60.501-42.867c-2.78-39.375,3.515-66.345-37.008-65.78
				c-40.522,0.564-47.302,16.144-49.571,29.512C985.359,369.603,997.172,435.265,1013.705,435.37z"/>
			<path style="fill:#2C3A64;" d="M987.937,334.209c8.921-12.544,16.491-10.476,20.883-7.212
				c33.187-21.471,57.463,5.014,57.463,5.014c6.254,27.947,27.788,42.669,27.788,42.669s-11.011,7.942-38.061,3.019
				c-8.262-1.505-15.92-6.751-22.577-13.303c12.04,17.246,27.601,29.177,27.601,29.177c-32.775-12.389-48.681-55.599-50.285-60.174
				c-3.61,3.742-10.676,11.815-12.465,19.359c-2.432,10.252-2.369,30.994-8.435,30.723
				C989.849,383.48,974.558,353.02,987.937,334.209z"/>
			<path style="fill:#FFB27D;" d="M1003.464,472.793c0,0,103.092-25.029,147.92,11.942l-22.402,312.43l-201.622-48.708
				c0,0,5.673-19.77,44.335-72.341C1010.356,623.546,993.539,546.435,1003.464,472.793z"/>
			<path style="fill:#2B478B;" d="M1063.563,762.387c0,0-0.119,1.059-0.329,3.077c-0.092,0.867-0.21,1.917-0.338,3.141
				c-0.867,8.098-2.51,23.636-4.628,43.839c-5.532,52.986-14.215,138.091-20.131,205.265c-4.629,52.521-7.567,94.088-5.979,100.762
				c4.775,20.084,0,260.187,0,260.187c-17.136,8.217-43.118,0-43.118,0s-45.646-216.365-39.256-246.438
				c6.391-30.072-4.272-55.743-4.272-55.743c-35.44-165.051-31.561-256.527-24.522-300.32c2.045-12.736,4.363-21.435,6.062-26.74
				c1.434-4.51,2.428-6.572,2.428-6.572C1007.655,721.807,1063.563,762.387,1063.563,762.387z"/>
			<path style="fill:#233862;" d="M1128.984,797.161c-24.047,10.097-48.012,14.516-70.716,15.282
				c-20.752,0.694-40.443-1.662-58.19-5.523c-38.663-8.408-68.105-23.974-79.088-30.766c2.045-12.736,4.363-21.435,6.062-26.74
				c23.801-16.944,82.648-0.731,130.724,17.246c1.716,0.647,3.423,1.296,5.121,1.944
				C1099.716,782.682,1128.984,797.161,1128.984,797.161z"/>
			<path style="fill:#F99746;" d="M1165.282,573.847c-4.975,37.586-24.887,83.58-31.997,108.339c0,0,11.886,85.953,0.538,109.553
				c-1.288,2.692-2.885,4.574-4.839,5.423c-42.041,18.313-205.767,0.529-212.678-52.284c-2.512-19.19,62.362-86.692,66.143-94.881
				c1.57-3.388,3.24-14.37-4.364-37.13c-10.782,33.239-30.693,71.62-50.723,78.166c-22.011,7.202-109.042-57.652-109.042-57.652
				s-0.502-7.878,10.5-15.329c7.074-4.792,23.324-6.407,23.324-6.407l55.653,24.904c6.984-11.95,24.385-94.626,43.813-131.946
				c14.606-28.055,53.607-32.118,53.607-32.118s16.231,25.745,55.487,22.094c39.257-3.651,46.436-27.682,46.436-27.682
				s34.816,4.629,45.544,13.283C1154.544,481.68,1171.811,524.604,1165.282,573.847z"/>
			<path style="fill:#ED7D2B;" d="M1133.285,682.185c0,0,11.886,85.953,0.538,109.553c-30.63-15.374-70.553-48.56-58.401-100.414
				c17.647-75.336,89.86-117.478,89.86-117.478C1160.308,611.433,1140.396,657.427,1133.285,682.185z"/>
			<path style="fill:#FFB27D;" d="M1107.141,624.409c0,0-43.602,6.319-47.081,9.572c-3.479,3.254-15.51,22.167-14.026,28.745
				c1.483,6.577,1.329,13.358,3.996,12.892c2.666-0.468,11.377-17.186,14.668-17.952c3.29-0.768,6.004-3.02,6.403-1.552
				c0.4,1.468-6.692,8.5-6.342,10.5s5.934-0.342,8.441-4.223s8.768-5.802,9.708-8.219c0.939-2.417,5.262-10.422,11.131-10.055
				C1099.906,644.484,1107.141,624.409,1107.141,624.409z"/>
			<polygon style="fill:#FFB27D;" points="1149.564,622.692 1107.141,624.409 1092.625,644.195 1150.325,646.125 			"/>
			<path style="fill:#F99746;" d="M1107.141,466.896c0,0,50.564,5.999,64.487,27.682c17.604,27.416,79.795,118.334,78.456,145.849
				c0,0-38.745,15.435-142.903,7.161c0,0-1.893-15.756,20.018-28.393c0,0,55.918-7.658,62.079-13.086l-41.517-44.119
				L1107.141,466.896z"/>
			<path style="fill:#2B478B;" d="M794.988,528.924l34.573-3.303c2.772-0.264,5.395,1.31,6.464,3.884l26.103,62.831
				c1.638,3.942-1.006,8.346-5.257,8.751l-35.976,3.438c-2.82,0.269-5.477-1.363-6.513-4.001l-24.699-62.964
				C788.144,533.633,790.791,529.324,794.988,528.924z"/>
			<path style="fill:#FFB27D;" d="M791.846,594.771c0,0-9.13-15.748-8.444-19.628c0.684-3.881,10.133-21.872,14.987-23.66
				c8.672-3.195,20.845-5.174,17.498,3.956c-2.211,6.026-10.956,14.759-9.435,17.498c1.521,2.738,0.939,12.37,0.939,12.37
				L791.846,594.771z"/>
		</g>
		<g>
			<path style="fill:#F9DDBF;" d="M2169.784,1273.879c-12.389,79.389-93.403,129.947-176.499,129.947h-164.584l12.872-462.731
				c0,0,157.035-50.403,196.474-2.456c34.555,42.004,128.259,208.277,133.188,306.692
				C2171.729,1255.209,2171.218,1264.74,2169.784,1273.879z"/>
			<path style="fill:#C6916D;" d="M1732.883,990.095c0,0,222.023-113.325,264.077-39.298c22.33,39.306,83.777,196.118,88.313,294.53
				c4.408,95.622-78.434,158.496-163.653,158.496h-151.354L1732.883,990.095z"/>
			<path style="fill:#EFCBAB;" d="M1774.627,1052.948c-1.871,9.631-19.846,18.568-46.522,26.475
				c-4.702,1.396-9.668,2.758-14.872,4.09c-90.791,23.188-251.604,36.134-266.934,29.296
				c-21.181-9.449-151.183-471.341-151.183-471.341s124.096-4.664,222.647-6.938c33.715-0.768,64.436-1.26,86.182-1.195
				c2.646,0.009,5.14,0.182,7.477,0.519c9.412,1.342,16.396,5.268,21.929,11.22c15.867,17.054,19.802,50.732,34.491,87.962
				c14.524,36.81,32.354,82.749,49.262,128.341c4.355,11.749,8.654,23.472,12.818,35.021c1.178,3.259,2.337,6.5,3.496,9.723
				C1758.405,976.042,1777.649,1037.346,1774.627,1052.948z"/>
			<path style="fill:#EAC3A0;" d="M2169.784,1273.879c-12.389,79.389-93.403,129.947-176.499,129.947h-80.73
				C1966.391,1367.336,2015.068,1254.88,2169.784,1273.879z"/>
			<path style="fill:#E0B594;" d="M1733.418,906.12c-4.127-0.676-9.449-1.552-15.483-2.575c-1.27-1.286-2.255-2.583-2.849-3.879
				c-2.429-5.341-0.768-20.688,2.018-38.289c-16.907-45.592-34.737-91.531-49.262-128.341
				c-14.689-37.229-18.624-70.908-34.491-87.962c-5.532-5.951-12.517-9.878-21.929-11.22c-13.101,0.183-26.932,0.411-41.2,0.676
				c-5.067,10.052-13.804,19.536-28.896,27.479c-67.329,35.441-17.382,108.476-17.382,108.476
				c0.483,0.329,26.722,52.477,26.722,52.477c-0.091-3.643,3.441-10.161,9.494-18.46c4.465,31.177,11.731,63.011,20.414,85.798
				c-4.757,24.074-16.963,59.934-23.5,87.359c-5.23,21.874-6.847,38.361,1.79,39.174c0.967,0.092,2.045,0.082,3.204,0
				c-0.539,7.623,0.949,15.657,5.258,23.982c16.872,32.62,98.041,38.49,160.778,38.608c26.677-7.906,44.651-16.844,46.522-26.475
				C1777.649,1037.346,1758.405,976.042,1733.418,906.12z"/>
			<path style="fill:#D39E7A;" d="M2040.184,1332.727c-31.771,44.141-80.503,72.433-134.787,71.557l-233.364,0.118l-111.808,0.055
				l125.793-414.301c0,0,318.396-31.678,357.653,10.564c18.231,19.609,28.465,108.42,34.198,197.942
				C2081.101,1249.138,2066.412,1296.328,2040.184,1332.727z"/>
			<path style="fill:#C6916D;" d="M2040.184,1332.727c-31.771,44.141-80.503,72.433-134.787,71.557l-233.364,0.118
				c27.461-23.052,113.824-88.464,206.296-85.369C1948.424,1321.379,2004.086,1320.375,2040.184,1332.727z"/>
			<g>
				<path style="fill:#F4A269;" d="M1753.289,700.181c0,0,19.389,28.692,30.448,89.01c9.685,52.826,18.178,72.329,32.165,83.162
					c13.986,10.834,91.916,42.818,91.916,42.818l-5.826,13.651c0,0-114.223-15.557-127.053-34.647
					c-12.83-19.09-61.744-131.88-57.947-157.857C1720.789,710.343,1753.289,700.181,1753.289,700.181z"/>
				<g>
					<path style="fill:#FFB27D;" d="M2032.993,1330.289c-1.027,11.141,14.481,13.85,32.443,14.744s12.534,4.573,37.149,9.031
						c24.615,4.459,34.481-2.277,36.262-5.604c1.588-2.95-9.857-7.565-22.054-12.781c-1.535-0.65-3.071-1.322-4.608-1.994
						c-13.727-6.036-21.429-18.347-32.131-29.761c-10.138-10.811-19.762-45.427-19.762-45.427l-33.451-7.143
						c0,0,9.393,31.154,12.652,44.454c1.918,7.823-0.912,16.569-3.424,23.227C2034.717,1322.656,2033.35,1326.364,2032.993,1330.289
						z"/>
					<path style="fill:#C65447;" d="M2065.437,1345.033c17.962,0.895,12.534,4.573,37.149,9.031
						c24.615,4.459,34.481-2.277,36.262-5.604c1.588-2.95-9.857-7.565-22.054-12.781l-0.189,0.208c0,0-17.31,5.877-37.286,0.445
						c-16.284-4.422-32.029-14.152-43.248-17.297c-1.354,3.621-2.721,7.329-3.077,11.254
						C2031.966,1341.43,2047.475,1344.139,2065.437,1345.033z"/>
				</g>
				<path style="fill:#163560;" d="M1699.886,933.617c0,0,222.283-16.729,264.13,9.681c41.848,26.411,108.963,334.04,108.963,334.04
					s-4.143,3.32-13.395,4.321c-8.604,0.932-27.553-4.127-27.553-4.127s-96.454-137.645-103.248-172.32
					c-6.794-34.677-5.135-65.617-20.605-66.446s-208.322,23.445-237.493-27.945c-29.17-51.391-5.056-102.263-5.056-102.263
					L1699.886,933.617z"/>
				<g>
					<path style="fill:#FFB27D;" d="M1947.938,1365.992c-1.027,11.14,14.48,13.849,32.443,14.743s12.533,4.573,37.15,9.032
						c24.615,4.457,34.479-2.278,36.262-5.604c1.587-2.951-9.858-7.565-22.054-12.782c-1.535-0.65-3.073-1.322-4.609-1.994
						c-13.728-6.035-21.429-18.346-32.132-29.76c-10.137-10.812-19.762-45.427-19.762-45.427l-33.451-7.144
						c0,0,9.393,31.154,12.653,44.455c1.918,7.823-0.912,16.569-3.424,23.226C1949.66,1358.359,1948.295,1362.066,1947.938,1365.992
						z"/>
					<path style="fill:#C65447;" d="M1980.381,1380.735c17.963,0.895,12.533,4.573,37.15,9.032
						c24.615,4.457,34.479-2.278,36.262-5.604c1.587-2.951-9.858-7.565-22.054-12.782l-0.19,0.209c0,0-17.31,5.877-37.286,0.444
						c-16.285-4.422-32.03-14.152-43.248-17.297c-1.354,3.622-2.72,7.329-3.077,11.255
						C1946.91,1377.132,1962.418,1379.841,1980.381,1380.735z"/>
				</g>
				<path style="fill:#1C468A;" d="M1656.349,947.392c0,0,197.464,9.347,238.252,37.366
					c40.788,28.019,95.878,338.027,95.878,338.027s-4.269,3.156-13.553,3.797c-8.633,0.596-27.371-5.197-27.371-5.197
					s-91.023-141.293-96.463-176.207s-2.578-65.768-18.004-67.199c-15.427-1.43-209.077,15.319-236.225-37.167
					C1571.714,988.324,1656.349,947.392,1656.349,947.392z"/>
				<path style="fill:#B5453C;" d="M1726.712,512.865c-8.762-5.785-19.639-7.077-27.303-7.135c2.102-1.898,6.017-2.379,6.017-2.379
					c-4.687-1.02-15.566,2.971-15.566,2.971c-64.157-29.763-80.973,66.505-81.09,89.123c-0.128,22.615-1.689,48.555-35.908,66.565
					c-67.328,35.438-17.383,108.471-17.383,108.471c0.488,0.334,26.728,52.483,26.728,52.483
					c-0.448-18.314,89.945-108.775,135.682-134.623c11.715-14.993,17.355-42.482,17.784-44.646
					c-3.307,21.873-7.893,33.961-11.719,40.685C1763.335,652.702,1749.938,528.191,1726.712,512.865z"/>
				<path style="fill:#FFB27D;" d="M1648.051,667.131c0,0,17.435,0.756,35.819,2.502c12.495,1.186,25.829,2.563,32.871,5.506
					c17.402,7.275,15.577,38.087-20.94,32.381C1659.283,701.813,1645.49,676.268,1648.051,667.131z"/>
				<path style="fill:#FFB27D;" d="M1715.199,689.601c0.213,0.113,5.209,26.506-18.702,25.45
					c-15.696-0.692-49.55-19.686-46.561-33.125c1.422-6.389,13.283-22.964,15.669-60.796l2.857,0.764l48.045,12.887
					c0,0-2.13,15.248-3.125,29.68C1712.542,676.578,1712.51,688.121,1715.199,689.601z"/>
				<path style="fill:#F4A269;" d="M1716.508,634.78c0,0-2.13,15.248-3.125,29.68c-27.193-2.584-39.938-28.398-44.92-42.566
					L1716.508,634.78z"/>
				<path style="fill:#B5453C;" d="M1663.788,616.257c0,0-12.773-23.511-14.914-43.028c-1.528-13.935,8.889-64.517,59.696-53.744
					c0,0,14.803,2.462,28.176,12.855c10.637,8.265,25.628,25.577,4.686,68.924l-5.672,14.736L1663.788,616.257z"/>
				<path style="fill:#FFB27D;" d="M1724.694,649.054c0,0-64.53-3.233-61.897-43.39c2.632-40.155-3.924-67.617,37.389-67.249
					c41.313,0.366,48.305,16.214,50.687,29.831C1753.254,581.862,1741.549,648.861,1724.694,649.054z"/>
				<path style="fill:#B5453C;" d="M1729.609,539.389c0,0-20.789,45.93-48.34,51.089c-27.549,5.159-38.814-2.881-38.814-2.881
					s21.877-15.12,28.108-43.642C1670.563,543.955,1717.791,516.079,1729.609,539.389z"/>
				<path style="fill:#B5453C;" d="M1724.98,542.921c0,0,12.479,11.396,15.012,21.835c2.531,10.438,2.573,31.584,8.756,31.277
					c0,0,15.432-31.132,1.695-50.24C1735.879,525.53,1724.98,542.921,1724.98,542.921z"/>
				<path style="fill:#1C468A;" d="M1789.263,936.973c-5.222,6.243-21.528,8.16-38.956,11.027
					c-13.712,2.265-28.117,5.104-38.361,11.121c-23.262,13.656-99.264,59.814-121.539,57.715c-8.637-0.813-7.021-17.3-1.789-39.174
					c8.234-34.546,25.471-82.521,25.471-103.381c0-11.385,3.788-38.326,8.846-69.129c0.411-2.482,0.831-4.984,1.251-7.514
					c10.006-59.888,23.865-130.503,23.865-130.503s15.456,33.724,45.573,33.724c30.108,0,23.115-25.718,23.115-25.718
					s27.479,3.232,33.971,10.225c6.5,6.993,22.96,37.221,26.229,45.465c0,0,0.666,10.489-25.307,15.483
					c0,0,6.326,28.475,7.075,47.454c0.557,14.022-9.567,57.908-12.479,85.205c-1.032,9.668-1.169,17.255,0.401,20.696
					c2.009,4.409,8.509,8.801,15.903,13.109C1777.211,921.324,1795.461,929.55,1789.263,936.973z"/>
				<path style="fill:#163560;" d="M1762.531,912.779c16.67,28.42-45.209,36.965-55.451,42.981
					c-23.262,13.657-94.398,63.175-116.674,61.075c-8.637-0.813-7.021-17.3-1.789-39.174c8.234-34.546,25.471-82.521,25.471-103.381
					c0-11.385,3.788-38.326,8.846-69.129l26.813-25.744c0,0,28.729,74.258,56.118,86.428c14.352,6.373,29.342,10.581,40.361,13.138
					c-1.032,9.668-1.169,17.255,0.401,20.696C1748.637,904.079,1755.137,908.471,1762.531,912.779z"/>
				<path style="fill:#FFB27D;" d="M1639.81,689.362c0,0-22.926-13.923-45.091,12.488c-22.167,26.41,15.753,215.203,48.598,224.901
					c36.481,10.773,141.871-1.725,141.871-1.725l-2.03-16.47c0,0-112.193-21.512-116.855-27.506
					C1661.64,875.057,1651.465,692.407,1639.81,689.362z"/>
				<path style="fill:#1C468A;" d="M1648.051,667.131c0,0-47.082,4.247-60.755,19.732c-13.675,15.486-17.671,57.448-17.671,57.448
					s41.462,33.47,91.417,20.482L1648.051,667.131z"/>
				<g>
					<rect x="1796.193" y="933.852" style="fill:#9E332E;" width="62.188" height="7.348"/>
					<path style="fill:#9E332E;" d="M1845.173,940.193c0.608-2.432,57.168-91.244,57.168-91.244h125.846l-63.122,88.858
						L1845.173,940.193z"/>
					<path style="fill:#B5453C;" d="M1850.468,941.199c0.608-2.432,57.351-92.25,57.351-92.25h120.368l-60.053,92.25H1850.468z"/>
					<path style="fill:#9E332E;" d="M1956.578,895.373c-1.238,3.599-5.16,6.516-8.76,6.516c-3.599,0-5.512-2.917-4.271-6.516
						c1.238-3.6,5.16-6.517,8.76-6.517C1955.905,888.856,1957.817,891.773,1956.578,895.373z"/>
				</g>
				<path style="fill:#FFB27D;" d="M1774.004,907.579c0,0,36.529-7.07,40.654-5.303c4.124,1.767,27.103,22.389,24.746,26.514
					c-2.357,4.124-11.784,7.07-22.391,3.535c-10.605-3.535-33.584-5.303-37.707-10.605
					C1775.182,916.417,1774.004,907.579,1774.004,907.579z"/>
			</g>
			<path style="fill:#F9DDBF;" d="M1846.795,1278.032c-13.348,76.998-86.582,125.794-161.653,125.794h-151.355l11.84-462.731
				c0,0,144.409-50.403,180.68-2.456c31.779,42.004,117.952,208.277,122.489,306.692
				C1849.315,1256.716,1848.612,1267.635,1846.795,1278.032z"/>
			<path style="fill:#EAC3A0;" d="M1846.795,1278.032c-13.348,76.998-86.582,125.794-161.653,125.794h-121.12
				C1620.716,1365.4,1697.051,1259.227,1846.795,1278.032z"/>
			<path style="fill:#D39E7A;" d="M1612.162,1403.488c-1.133,0.083-2.266,0.155-3.396,0.22c-2.393,0.127-4.794,0.21-7.203,0.246
				c-0.795,0.009-1.599,0.019-2.401,0.019h-151.355l-0.009-0.073c-2.877,0.036-5.798,0.073-8.737,0.109
				c-15.585,0.191-31.862,0.374-46.962,0.502c-2.529,0.027-5.021,0.046-7.477,0.064c-0.913,0.009-1.826,0.009-2.721,0.018
				c-14.917,0.101-28.109,0.146-37.521,0.082c-13.229-0.091-25.699-1.022-37.431-2.885c-15.128-2.392-29.014-6.317-41.712-11.932
				c-4.574-2.019-8.993-4.264-13.266-6.737c-5.742-3.306-11.22-7.039-16.415-11.193c-13.429-10.727-25.041-24.293-34.92-41
				c-6.874-11.621-12.917-24.768-18.14-39.539c-6.573-18.523-11.858-39.604-15.921-63.439
				c-5.815-34.025-9.139-73.647-10.143-119.458c-0.402-18.451-0.43-37.896-0.092-58.392c0.538-32.738,2.018-68.142,4.382-106.349
				c3.323-53.653,8.408-112.839,15.128-177.986c6.125-59.505,13.191-101.099,23.472-110.575
				c15.163-13.977,46.788-19.601,68.789-21.854c0.009,0,0.009,0,0.019,0c13.657-1.398,23.581-1.507,23.581-1.507
				c26.877,0,50.769,19.299,59.396,47.975c17.563,58.391,48.924,162.786,81.561,271.983c0.165,0.548,0.329,1.096,0.493,1.643
				c1.872,6.271,3.753,12.561,5.633,18.86c0.283,0.96,0.575,1.918,0.868,2.877c1.835-0.822,3.743-1.681,5.715-2.548
				c0.063-0.036,0.128-0.064,0.2-0.091c7.825-3.469,16.68-7.267,26.238-11.139h0.009c4.957-2.008,10.089-4.043,15.384-6.07
				c14.935-5.725,31.058-11.385,47.399-16.26c7.249-2.173,14.552-4.19,21.811-5.979c9.32-2.31,18.568-4.264,27.579-5.715
				c0.311-0.055,0.566-0.092,0.785-0.128c1.068-0.174,2.128-0.329,3.187-0.484c38.863-5.705,72.587-1.743,86.537,22.869
				c22.33,39.422,83.771,196.693,88.309,295.391C1767.014,1336.022,1692.592,1397.454,1612.162,1403.488z"/>
			<path style="fill:#F9DDBF;" d="M1369.371,993.66c0,0-77.685-316.486-83.292-343.086c-2.495-11.855-10.196-16.14-17.953-17.241
				c13.654-1.396,23.589-1.502,23.589-1.502c26.879,0,50.766,19.237,59.393,47.83c18.813,62.364,53.457,177.368,88.551,294.504
				C1437.883,974.119,1369.371,993.66,1369.371,993.66z"/>
			<path style="fill:#C6916D;" d="M1655.6,1145.849c-20.788-34.363-3.333-40.809-6.519-117.788
				c-3.187-76.97-39.028-70.615-53.9-85.496c-2.721-2.738-5.03-8.326-7.212-15.813c-1.059,0.155-2.118,0.31-3.187,0.484
				c-0.219,0.036-0.475,0.073-0.785,0.128c-9.011,1.451-18.259,3.404-27.579,5.715c-7.259,1.789-14.562,3.807-21.811,5.979
				c-16.342,4.875-32.465,10.535-47.399,16.26c-5.295,2.027-10.427,4.063-15.384,6.07c-12.863,80.75-32.765,442.62-32.765,442.62
				c0.164,0.174,0.319,0.338,0.483,0.502c16.25-0.146,33.815-0.338,50.521-0.538c2.384-0.037,4.747-0.063,7.094-0.092l0.01,0.073
				h114.218c0.154-0.082,0.31-0.183,0.465-0.274c0.101-0.063,0.21-0.127,0.312-0.191c30.674-19.025,23.827-57.195,16.605-81.124
				c-2.912-25.589-14.214-55.561-23.453-83.424c2.866-8.48,6.893-13.329,24.175-19.71c19.199-7.075,24.237-37.293,24.237-37.293
				c5.132,13.511-6.6,32.162-6.91,32.654C1647.482,1213.808,1676.158,1179.81,1655.6,1145.849z"/>
		</g>
		<g id="girl_2_5_">
			<path style="fill:#ED985F;" d="M1400.438,989.856c0,0-115.227,50.2-136.142,49.288c-20.916-0.913-149.799-39.257-149.799-39.257
				l3.281,22.172c0,0,99.463,57.204,134.235,60.449c34.235,3.195,151.296-30.726,162.598-37.888
				C1425.914,1037.46,1433.281,997.104,1400.438,989.856z"/>
			<path style="fill:#233862;" d="M1417.75,805.178c0,0,42.508-8.073,63.68,7.387c38.349,28.005,40.408,124.557,54.782,138.939
				c14.373,14.383,49.02,8.246,52.104,82.668c3.083,74.421-13.795,80.643,6.307,113.865c20.102,33.221-8.504,66.471-8.504,66.471
				s11.716-18.338,6.695-31.576c0,0-4.877,29.214-23.438,36.061c-18.559,6.848-21.304,11.869-24.268,21.911
				c0,0-158.33-81.13-158.502-138.675c-0.173-57.545-31.158-114.547-15.942-139.483c0,0-6.776,10.668-7.607,22.536
				c0,0-9.13-17.494,6.694-33.777c15.824-16.284-18.563-49.984-13.471-89.013C1359.776,835.697,1378.578,806.345,1417.75,805.178z"
				/>
			<path style="fill:#FFB27D;" d="M1386.435,1044.684c10.12,7.02,22.81,12.81,38.738,16.485
				c59.711,13.796,82.594-36.671,91.188-71.313c-8.144-4.66-15.806-5.688-20.23-6.215c-4.315-0.51-8.855-0.848-12.614-1.034
				c-6.704-5.136-16.695-26.153-18.904-58.788l-2.81,0.754l-47.06,12.88c0,0,2.156,14.959,3.213,29.098
				c0.817,11.064,0.945,21.639-1.15,24.226c-3.672,0.797-5.876,1.316-5.876,1.316s-0.003,0.016-0.023,0.045
				C1410.273,993.173,1396.622,1015.625,1386.435,1044.684z"/>
			<path style="fill:#ED985F;" d="M1414.741,937.462c0,0,2.164,14.946,3.212,29.097c26.661-2.669,39.033-28.053,43.851-41.976
				L1414.741,937.462z"/>
			<path style="fill:#FFB27D;" d="M1406.78,951.504c0,0,63.282-3.492,60.503-42.868c-2.782-39.375,3.513-66.345-37.01-65.78
				c-40.521,0.565-47.302,16.144-49.569,29.513C1378.435,885.736,1390.248,951.396,1406.78,951.504z"/>
			<path style="fill:#233862;" d="M1381.013,850.342c8.921-12.545,16.491-10.475,20.883-7.211
				c33.187-21.473,57.463,5.013,57.463,5.013c6.254,27.947,27.787,42.669,27.787,42.669s-11.01,7.942-38.06,3.019
				c-8.263-1.505-15.92-6.751-22.577-13.303c12.04,17.246,27.601,29.178,27.601,29.178c-32.776-12.39-48.682-55.599-50.285-60.174
				c-3.61,3.742-10.676,11.814-12.465,19.358c-2.433,10.253-12.924,26.279-18.988,26.01
				C1372.371,894.9,1367.634,869.152,1381.013,850.342z"/>
			<path style="fill:#B5453C;" d="M1534.386,1173.347c5.715-29.215,24.348-145.934,5.715-183.492
				c-6.691-13.493-32.951-14.71-61.762-13.526c-8.965,5.787-43.126,27.658-57.157,24.929c-0.15-0.028-0.424-0.094-0.786-0.184
				c-6.606-1.652-9.102-6.295-3.59-10.296c0.012-0.009-14.27-1.377-31.99,1.96c-10.009,1.885-37.005,15.853-37.005,15.853
				s13.596,24.56,33.642,33.038c-3.408,30.492,1.659,43.944,33.293,114.373c26.73,59.533-3.606,113.131-3.606,113.131
				s157.354,126.516,158.23,62.099C1570.027,1282.734,1527.082,1210.686,1534.386,1173.347z"/>
			<path style="fill:#DD6D22;" d="M1403.339,1406.699c-8.558-0.966-16.263-5.65-21.046-12.812c-0.76-1.137-1.571-2.358-2.434-3.664
				c-17.911-27.114-24.88-110.152-65.169-198.616c-9.813-21.536-45.039-25.41-54.643-49.758c0,0-23.642-78.911,45.249-81.239
				s184.499,219.567,186.324,242.838C1493.391,1325.993,1537.168,1421.8,1403.339,1406.699z"/>
			<path style="fill:#9E332E;" d="M1129.527,1404.885h98.054c0,0,3.665-15.639-2.771-26.281c-5.698-9.416-3.515-14.78,0.705-22.57
				c-4.441,1.818-10.188,3.473-16.515,3.11c-4.885-0.281-10.051-2.498-14.582-5.129c-4.22,4.812-22.29,25.291-27.936,29.349
				C1160.074,1387.967,1131.502,1386.327,1129.527,1404.885z"/>
			<path style="fill:#9E332E;" d="M1524.049,1020.449c0,0,12.762,116.107-70.002,140.437
				c-82.764,24.328-106.259-106.83-39.435-116.265C1481.436,1035.188,1524.049,1020.449,1524.049,1020.449z"/>
			<path style="fill:#ED7D2B;" d="M1257.807,1083.422c-5.905,44.263-28.961,183.973-69.633,252.134
				c-13.113,21.976,33.036,34.294,33.285,34.229c6.189-1.619,16.501-11.487,21.254-15.771
				c33.02-29.759,100.051-114.024,100.051-181.581c0-32.941,0.578-95.852-23.375-111.842
				C1304.638,1050.745,1260.151,1065.842,1257.807,1083.422z"/>
			<path style="fill:#F99746;" d="M1461.807,1404.885c0,0-3.633-5.058-9.97-14.661c-7.54-11.421-15.884-33.897-26.009-62.71
				c-10.636-30.246-23.253-67.457-39.02-106.174c-4.865-11.951-10.032-24.048-15.528-36.126
				c-9.814-21.536-36.81-18.56-46.413-42.907c0,0-37.477-84.401,31.413-86.729c68.891-2.328,199.797,225.778,207.319,247.871
				C1571.834,1327.633,1612.013,1428.056,1461.807,1404.885z"/>
			<path style="fill:#B5453C;" d="M1201.506,1404.885h98.053c0,0,3.666-15.639-2.771-26.281c-5.699-9.416-3.514-14.78,0.706-22.57
				c-4.442,1.818-10.188,3.473-16.516,3.11c-4.885-0.281-10.052-2.498-14.581-5.129c-4.221,4.812-22.291,25.291-27.938,29.349
				C1232.052,1387.967,1203.479,1386.327,1201.506,1404.885z"/>
			<path style="fill:#ED7D2B;" d="M1425.828,1327.514c-10.636-30.246-23.253-67.457-39.02-106.174
				c4.118-29.334,13.001-54.996,27.937-65.34C1414.745,1156,1450.979,1268.255,1425.828,1327.514z"/>
			<path style="fill:#F99746;" d="M1315.043,1080.283c-5.904,44.265-14.221,187.111-54.892,255.272
				c-13.113,21.976,33.036,34.294,33.286,34.229c6.188-1.619,16.5-11.487,21.253-15.771
				c33.021-29.759,100.051-114.024,100.051-181.581c0-32.941-38.658-93.21-62.61-109.199
				C1337.379,1053.388,1317.389,1062.703,1315.043,1080.283z"/>
			<g>
				<path style="fill:#9E332E;" d="M1102.791,942.846l100.416-10.665c2.927-0.311,5.695,1.39,6.742,4.14l35.928,94.405
					c1.575,4.139-1.371,8.604-5.797,8.781l-99.64,4.021c-2.706,0.109-5.195-1.477-6.241-3.976l-36.703-87.76
					C1095.822,947.789,1098.478,943.305,1102.791,942.846z"/>
				<path style="fill:#B5453C;" d="M1094.069,943.759l100.415-10.665c2.927-0.311,5.695,1.389,6.742,4.14l35.928,94.405
					c1.575,4.139-1.372,8.604-5.796,8.781l-99.641,4.02c-2.707,0.11-5.196-1.476-6.24-3.975l-36.703-87.76
					C1087.1,948.702,1089.754,944.217,1094.069,943.759z"/>
				<path style="fill:#9E332E;" d="M1149.729,987.838c-1.228-3.369,0.511-6.101,3.88-6.101c3.37,0,7.096,2.732,8.323,6.101
					c1.226,3.37-0.512,6.103-3.882,6.103S1150.955,991.208,1149.729,987.838z"/>
				<path style="fill:#9E332E;" d="M1097.073,952.68c-0.603-1.655,0.251-2.997,1.906-2.997c1.656,0,3.486,1.342,4.089,2.997
					c0.603,1.656-0.251,2.998-1.906,2.998C1099.506,955.678,1097.676,954.336,1097.073,952.68z"/>
			</g>
			<path style="fill:#FFB27D;" d="M1516.361,989.856c0,0-139.172,51.251-160.08,50.2c-13.517-0.679-125.861-40.169-125.861-40.169
				l-10.085,19.079c0,0,109.347,70.28,139.407,69.933c59.349-0.687,159.491-37.116,170.793-44.278
				C1541.836,1037.46,1549.204,997.104,1516.361,989.856z"/>
			<path style="fill:#FFB27D;" d="M1230.42,999.888c0,0-10.085-15.521-20.127-15.976c-10.043-0.457-27.389,6.847-33.322,7.987
				c-5.934,1.142-22.824,6.618-17.803,14.836c5.021,8.216,28.301,10.042,38.344,8.216c10.042-1.826,22.823,4.016,22.823,4.016
				L1230.42,999.888z"/>
			<path style="fill:#FFB27D;" d="M1213.025,984.39c0,0-15.971-7.325-20.535-8.694c-4.564-1.369-3.652,0.021-2.283,4.348
				c1.371,4.324,9.587,8.454,9.587,9.813C1199.794,991.215,1213.025,984.39,1213.025,984.39z"/>
			<path style="fill:#FFB27D;" d="M1104.412,991.672c0,0,10.069-15.928,13.367-16.58c10.044-1.983,10.044,11.243,7.914,19.774
				c-2.285,9.153-10.021,17.791-12.162,17.036C1111.392,1011.148,1102.043,1000.089,1104.412,991.672z"/>
			<path style="fill:#FFB27D;" d="M1104.03,994.866c0,0-3.219,17.868,13.749,27.193L1104.03,994.866z"/>
			<path style="fill:#FFFFFF;" d="M1394.934,928.859c0,0,5.982-2.366,22.816-1.002c0,0-0.895,6.567-13.31,7.217
				C1397.408,935.441,1394.934,928.859,1394.934,928.859z"/>
			<path style="fill:#B5453C;" d="M1444.659,1015.131c0,0,12.447,39.404,55.194,48.37c0,0,70.593-21.749,35.445-69.841
				C1535.299,993.66,1500.546,967.839,1444.659,1015.131z"/>
		</g>
		<path style="fill:#2E3552;" d="M2927.397,1412.288H142.66c-1.739,0-3.163-1.423-3.163-3.162v-1.079
			c0-1.739,1.423-3.162,3.163-3.162h2784.738c1.738,0,3.162,1.423,3.162,3.162v1.079
			C2930.56,1410.865,2929.136,1412.288,2927.397,1412.288z"/>
	</g>
</g>
</svg>
